<svg width="105" height="61" viewBox="0 0 105 61" fill="none" xmlns="http://www.w3.org/2000/svg">
<g clip-path="url(#clip0_2_441)">
<path fill-rule="evenodd" clip-rule="evenodd" d="M79.0963 12.6503L79.0395 5.47066C77.5625 5.37627 76.5436 5.27156 75.8935 5.46432H74.9187V8.41675C74.9163 8.98233 74.9171 9.50983 74.8747 10.1444C73.3377 9.66531 66.5426 5.80382 61.6765 3.10364L61.7197 3.06874L59.7404 2.03674C58.5177 1.36883 57.5477 0.856398 57.0119 0.612874L56.0978 0.136138L54.6176 0.740585C53.0702 1.25778 51.7771 2.01056 50.3704 2.82442L45.661 5.06691C45.5642 5.06849 45.4675 5.06532 45.3699 5.0558L37.1275 0.780247C36.7828 0.570832 36.5021 0.409012 36.2182 0.321756L35.6632 0.0227051L34.8395 0.458193C34.5444 0.577972 34.203 0.753277 33.7911 0.993628L32.3877 1.75355L32.3213 1.78845L32.3205 1.79004L20.2019 8.34774C14.2026 11.8253 7.83222 14.9618 2.1088 18.1474C2.43027 19.7029 3.08043 20.7437 3.88412 21.6606L19.7997 13.1682C21.6198 12.2275 35.0291 4.92016 35.6992 4.94395L59.5365 17.4263C61.3454 18.406 65.7917 21.1141 67.5343 21.5734L69.3176 18.26C65.519 15.8748 52.0738 9.34642 50.4104 7.78057C50.5519 7.66238 51.1445 7.29035 51.8682 6.86042L51.8714 6.86835L55.3157 5.10895C55.3413 5.10974 55.3677 5.11053 55.3957 5.11212L61.0567 7.44265C64.8329 9.3607 69.1449 11.8523 70.1957 12.421C76.5636 15.8692 83.6217 19.1025 89.7434 23.0441L89.8578 38.1656L93.9882 38.2005L94.1585 33.4196L94.1913 25.3151L103.297 30L105 26.4407C96.3185 22.4888 87.8865 16.8576 79.0963 12.6503Z" fill="url(#paint0_linear_2_441)"/>
<path fill-rule="evenodd" clip-rule="evenodd" d="M11.6915 46.9483C14.0778 46.3883 17.0463 44.8129 21.9868 43.7975C34.0238 41.3242 44.4815 43.2788 54.4441 49.5572C63.3966 55.1995 76.0878 56.5607 86.1512 51.2143C90.3384 48.9901 90.899 48.0477 93.6443 45.7211C90.747 47.1855 88.5631 48.8766 84.8077 50.2188C60.4857 58.9111 55.5108 39.0413 31.5072 40.5135C25.6646 40.8721 14.792 43.7531 11.6915 46.9483Z" fill="#438D8A"/>
<path fill-rule="evenodd" clip-rule="evenodd" d="M10.6599 51.7101C17.9772 49.7214 22.8881 47.6257 31.8623 47.5424C35.7656 47.5067 40.0695 47.9977 43.5882 48.8751C46.8398 49.6865 51.8235 51.7386 53.2437 52.0258C52.8247 51.3952 53.1606 51.8084 52.6999 51.3182C52.6639 51.2794 52.1609 50.8375 52.1129 50.8002C41.2059 42.3681 22.1364 42.7259 10.6599 51.7101Z" fill="#438D8A"/>
<path fill-rule="evenodd" clip-rule="evenodd" d="M55.0878 42.944C61.1879 47.4544 65.7006 50.3219 75.2425 49.8365C81.5049 49.5176 92.28 44.7946 93.8442 40.9712C92.1417 41.5447 91.1533 42.3301 89.5387 43.1146C81.6817 46.934 72.5835 48.0945 64.0228 45.9377C60.8456 45.1373 57.9707 43.6698 55.0878 42.944Z" fill="#438B84"/>
<path fill-rule="evenodd" clip-rule="evenodd" d="M70.9442 31.0224C70.9474 33.6536 70.4612 36.1285 72.1829 36.4204C74.5732 36.825 73.9118 31.6626 73.9094 28.5943C73.9078 27.7099 73.7543 27.0705 73.5168 26.4946C70.222 25.5547 70.9418 28.1168 70.9442 31.0224Z" fill="#F9FDFD"/>
<path fill-rule="evenodd" clip-rule="evenodd" d="M44.8413 26.4708C48.0385 26.5795 49.5227 26.6493 49.5843 23.3875C49.6507 19.8346 48.2736 19.8156 44.8509 19.9726L44.8413 26.4708Z" fill="#FAFEFA"/>
<path fill-rule="evenodd" clip-rule="evenodd" d="M33.2225 26.478C32.5692 28.051 32.546 34.6015 33.2353 36.3102L35.3745 36.2094C36.0543 34.5531 36.0727 28.1144 35.3905 26.3582L33.2225 26.478Z" fill="#FAFEFA"/>
<path fill-rule="evenodd" clip-rule="evenodd" d="M59.0543 30.6671L61.6341 30.4569C62.1619 29.0552 62.1443 27.7773 61.6413 26.4502L59.0879 26.1305L59.0543 30.6671Z" fill="#F6FEFA"/>
<path d="M28.5891 16.223H23.9253V31.8189C23.9253 33.6473 22.8641 34.6721 21.5798 34.6721C20.2947 34.6721 19.2615 33.6473 19.2615 31.8189V28.9378H14.6256V31.8189C14.6256 34.9212 16.7208 36.9987 19.8484 36.9987H23.3671C26.4947 36.9987 28.5891 34.9212 28.5891 31.8189V16.223Z" fill="#1B699A"/>
<path d="M59.351 29.2242V24.5774H60.5313C61.7685 24.5774 62.4802 25.2842 62.4802 26.5105V27.3101C62.4802 28.5364 61.7685 29.2242 60.5313 29.2242H59.351ZM65.591 36.9749V33.4807C65.591 31.3992 64.1852 30.0047 62.4618 30.0047C64.1852 30.0047 65.591 28.611 65.591 26.5105C65.591 24.4291 64.1852 23.0353 62.0868 23.0353H56.2218V36.9749H59.351V30.7853H60.5313C61.7685 30.7853 62.4802 31.492 62.4802 32.7184V36.9749H65.591Z" fill="#1B699A"/>
<path d="M73.7047 36.9749C75.8031 36.9749 77.2082 35.5812 77.2082 33.4989V27.1181C77.2082 25.0549 75.8031 23.6604 73.7047 23.6604H71.3432C69.2448 23.6604 67.8398 25.0549 67.8398 27.1181V33.4989C67.8398 35.5804 69.2448 36.9749 71.3432 36.9749H73.7047ZM74.079 33.4989C74.079 34.7443 73.3857 35.4321 72.5244 35.4321C71.6623 35.4321 70.969 34.7443 70.969 33.4989V27.1364C70.969 25.9092 71.6623 25.2033 72.5244 25.2033C73.3857 25.2033 74.079 25.91 74.079 27.1364V33.4989Z" fill="#1B699A"/>
<path d="M79.5633 33.9947C79.5633 35.7049 80.9691 37.0986 83.0676 37.0986H83.8728C85.972 37.0986 87.3771 35.7977 87.3771 33.6972C87.3771 32.5455 87.0772 31.7086 86.4591 31.0399L83.1427 27.3593C82.8428 27.0063 82.6925 26.5605 82.6925 26.1702C82.6925 25.3151 83.3858 24.7019 84.2479 24.7019C85.2035 24.7019 85.6906 25.2223 85.8217 26.263H87.3771C87.3771 24.5528 86.2152 23.1591 83.8728 23.1591H83.0676C80.9691 23.1591 79.5633 24.46 79.5633 26.5605C79.5633 27.7313 79.8824 28.5491 80.4813 29.2178L83.7985 32.8985C84.0984 33.2324 84.2479 33.679 84.2479 34.0875C84.2479 34.9426 83.5362 35.5376 82.6741 35.5376C81.812 35.5376 81.1187 34.8498 81.1187 33.9947H79.5633Z" fill="#1B699A"/>
<path d="M35.6872 36.9749C37.7856 36.9749 39.1907 35.5812 39.1907 33.4989V27.1181C39.1907 25.0549 37.7856 23.6604 35.6872 23.6604H33.3257C31.2273 23.6604 29.8222 25.0549 29.8222 27.1181V33.4989C29.8222 35.5804 31.2273 36.9749 33.3257 36.9749H35.6872ZM36.0615 33.4989C36.0615 34.7443 35.3681 35.4321 34.5061 35.4321C33.6448 35.4321 32.9515 34.7443 32.9515 33.4989V27.1364C32.9515 25.9092 33.6448 25.2033 34.5061 25.2033C35.3681 25.2033 36.0615 25.91 36.0615 27.1364V33.4989Z" fill="#1B699A"/>
<path d="M54.58 21.3204C54.58 18.218 52.5136 16.1405 49.3852 16.1405H40.6165V36.9162H45.2803V28.8553H49.358C52.4856 28.8553 54.58 26.7778 54.58 23.6755V21.3204ZM49.9442 23.6755C49.9442 25.5031 48.883 26.5288 47.0397 26.5288H45.2803V18.4401H47.0397C48.883 18.4401 49.9442 19.4927 49.9442 21.3204V23.6755Z" fill="#1B699A"/>
<path d="M16.3146 56.8598H18.2387C18.3634 56.8598 18.4986 56.8709 18.6457 56.8931C18.792 56.9153 18.9248 56.9645 19.0431 57.0399C19.1623 57.116 19.2543 57.2112 19.3198 57.327C19.3854 57.4428 19.4182 57.5737 19.4182 57.7189C19.4182 57.9545 19.3334 58.1456 19.1639 58.2924C18.9944 58.4383 18.7936 58.5335 18.5625 58.5779L19.2047 59.3204L19.2319 59.3537C19.2727 59.4037 19.311 59.4418 19.3454 59.4656C19.3798 59.4902 19.4142 59.5076 19.4478 59.5179C19.483 59.5282 19.531 59.5338 19.5917 59.5338H19.7261V59.9614H18.7249L17.722 58.6271H17.4621V59.2451C17.4621 59.3514 17.4685 59.4188 17.4797 59.4473C17.4917 59.4767 17.5109 59.4981 17.5373 59.5124C17.5629 59.5267 17.6157 59.5338 17.6957 59.5338H17.8388V59.9614H16.3146V59.5338H16.4545C16.5281 59.5338 16.5801 59.5259 16.6105 59.51C16.6417 59.4949 16.6649 59.4711 16.6792 59.4402C16.6872 59.422 16.6904 59.3664 16.6904 59.2728V57.5261C16.6904 57.4579 16.6856 57.4095 16.6736 57.3802C16.6625 57.3516 16.6441 57.3326 16.6185 57.3238C16.5825 57.308 16.5417 57.2992 16.4945 57.2992L16.4313 57.3016H16.3146V56.8598ZM17.4621 57.3698V58.1718H17.9252C18.1075 58.1718 18.2434 58.1552 18.3338 58.121C18.4242 58.0877 18.4914 58.0401 18.5377 57.9791C18.5825 57.9164 18.6057 57.8402 18.6057 57.7514C18.6057 57.6705 18.5841 57.6007 18.5417 57.542C18.4994 57.4841 18.4386 57.4404 18.361 57.4127C18.2826 57.3841 18.1539 57.3698 17.9764 57.3698H17.4621Z" fill="#1B699A"/>
<path d="M21.1463 57.6935C21.4022 57.6935 21.6246 57.7427 21.8149 57.8418C22.0052 57.941 22.1508 58.0758 22.2531 58.2456C22.3555 58.4169 22.4067 58.6168 22.4067 58.8453C22.4067 59.1919 22.2939 59.4727 22.0668 59.6885C21.8389 59.9042 21.535 60.0113 21.1559 60.0113C20.7681 60.0113 20.461 59.9034 20.2323 59.6861C20.0108 59.4791 19.8996 59.1983 19.8996 58.8453C19.8996 58.6144 19.95 58.4145 20.0516 58.2472C20.1523 58.0806 20.2987 57.9457 20.4898 57.845C20.6809 57.7442 20.9 57.6935 21.1463 57.6935ZM21.1575 58.1805C21.072 58.1805 20.992 58.2059 20.9168 58.2559C20.8417 58.3059 20.7841 58.3796 20.7425 58.4772C20.7009 58.5748 20.6801 58.6985 20.6801 58.8492C20.6801 59.0039 20.7001 59.1324 20.7409 59.234C20.7817 59.3363 20.8385 59.4116 20.9088 59.4608C20.98 59.5092 21.0584 59.5338 21.1439 59.5338C21.2767 59.5338 21.3895 59.4791 21.4846 59.3688C21.579 59.2585 21.6262 59.088 21.6262 58.8556C21.6262 58.6319 21.583 58.4629 21.495 58.3503C21.4062 58.2369 21.2943 58.1805 21.1575 58.1805Z" fill="#1B699A"/>
<path d="M23.9941 57.6935C24.25 57.6935 24.4723 57.7427 24.6626 57.8418C24.8529 57.941 24.9985 58.0758 25.1008 58.2456C25.2032 58.4169 25.2544 58.6168 25.2544 58.8453C25.2544 59.1919 25.1416 59.4727 24.9137 59.6885C24.6866 59.9042 24.3827 60.0113 24.0037 60.0113C23.6158 60.0113 23.3087 59.9034 23.08 59.6861C22.8585 59.4791 22.7473 59.1983 22.7473 58.8453C22.7473 58.6144 22.7977 58.4145 22.8993 58.2472C23 58.0806 23.1464 57.9457 23.3375 57.845C23.5286 57.7442 23.7478 57.6935 23.9941 57.6935ZM24.0053 58.1805C23.9197 58.1805 23.8397 58.2059 23.7645 58.2559C23.6894 58.3059 23.631 58.3796 23.5902 58.4772C23.5486 58.5748 23.5278 58.6985 23.5278 58.8492C23.5278 59.0039 23.5478 59.1324 23.5886 59.234C23.6294 59.3363 23.6854 59.4116 23.7565 59.4608C23.8277 59.5092 23.9061 59.5338 23.9917 59.5338C24.1244 59.5338 24.2372 59.4791 24.3323 59.3688C24.4267 59.2585 24.4739 59.088 24.4739 58.8556C24.4739 58.6319 24.4307 58.4629 24.3419 58.3503C24.254 58.2369 24.142 58.1805 24.0053 58.1805Z" fill="#1B699A"/>
<path d="M25.595 57.7435H25.9253C25.9269 57.5515 25.9517 57.4 25.9997 57.2889C26.0477 57.1771 26.1276 57.0763 26.2388 56.9843C26.3508 56.8931 26.4891 56.8217 26.6554 56.7717C26.821 56.721 27.0153 56.6956 27.2384 56.6956C27.4735 56.6956 27.6719 56.7234 27.8358 56.7773C27.9997 56.8312 28.1157 56.8963 28.1837 56.9724C28.2516 57.0486 28.2852 57.1255 28.2852 57.2025C28.2852 57.2564 28.2716 57.308 28.2428 57.3556C28.2149 57.4024 28.1765 57.4381 28.1285 57.4619C28.0805 57.4857 28.0237 57.4976 27.9557 57.4976C27.8966 57.4976 27.8406 57.4864 27.7902 57.4658C27.7398 57.4436 27.6703 57.3952 27.5815 57.3175C27.5127 57.258 27.4479 57.2175 27.3872 57.1945C27.3272 57.1715 27.26 57.1604 27.1848 57.1604C27.0681 57.1604 26.9609 57.1874 26.865 57.2413C26.7682 57.2961 26.7074 57.3595 26.681 57.4309C26.6554 57.5023 26.6418 57.6062 26.6418 57.7435H27.867C27.9773 57.7435 28.0533 57.7387 28.0941 57.73C28.1189 57.7252 28.1461 57.7117 28.1741 57.6887H28.3868V59.2704C28.3868 59.3839 28.3892 59.4473 28.394 59.4624C28.402 59.4854 28.418 59.5037 28.4404 59.5163C28.4628 59.5275 28.5123 59.5338 28.5915 59.5338H28.7179V59.9613H27.34V59.5338H27.4383C27.5287 59.5338 27.5855 59.529 27.6079 59.5187C27.6303 59.5092 27.6471 59.4925 27.6567 59.4687C27.6663 59.4497 27.6703 59.3934 27.6703 59.3022V58.2123H26.6418V59.2704C26.6418 59.3736 26.6466 59.437 26.6562 59.4624C26.6658 59.487 26.6818 59.5052 26.7042 59.5163C26.7258 59.5282 26.7794 59.5338 26.865 59.5338H26.9729V59.9613H25.595V59.5338H25.687C25.7734 59.5338 25.8294 59.5267 25.8558 59.514C25.8837 59.4997 25.9013 59.4814 25.9109 59.4576C25.9213 59.4338 25.9253 59.3672 25.9253 59.2577V58.2123H25.595V57.7435Z" fill="#1B699A"/>
<path d="M29.9838 57.6935V57.9886C30.1525 57.8743 30.2981 57.7966 30.418 57.7554C30.5388 57.7141 30.6619 57.6935 30.7883 57.6935C30.9338 57.6935 31.0626 57.7236 31.1737 57.7847C31.2849 57.845 31.3673 57.9211 31.4176 58.0124C31.4688 58.1028 31.4944 58.2321 31.4944 58.3995V59.322C31.4944 59.4013 31.4992 59.4513 31.5112 59.4735C31.5216 59.4957 31.5392 59.5124 31.564 59.5219C31.5816 59.5298 31.6351 59.5338 31.7247 59.5338H31.8343V59.9613H30.5204V59.5338C30.6195 59.5322 30.6755 59.5298 30.6867 59.5267C30.7243 59.5163 30.7483 59.4989 30.7603 59.4759C30.7715 59.4521 30.7779 59.4013 30.7779 59.3228V58.5113C30.7779 58.4066 30.7667 58.3392 30.7443 58.3082C30.7083 58.2567 30.6515 58.2305 30.5732 58.2305C30.5092 58.2305 30.4404 58.244 30.3668 58.2725C30.2933 58.3003 30.1949 58.3582 30.0709 58.4455V59.3228C30.0709 59.4188 30.0813 59.4783 30.1029 59.4997C30.1237 59.5219 30.1749 59.5338 30.2549 59.5338H30.3276V59.9613H29.0241V59.5338H29.0889C29.1913 59.5338 29.2545 59.529 29.2792 59.5203C29.304 59.5116 29.3232 59.4957 29.3352 59.4735C29.348 59.4513 29.3544 59.4085 29.3544 59.3426V58.313H29.0241V57.8847C29.2912 57.8513 29.5423 57.7871 29.7759 57.6935H29.9838Z" fill="#1B699A"/>
<path d="M33.8447 57.8767C33.9231 57.7649 34.003 57.684 34.0814 57.6372C34.1614 57.5896 34.2446 57.5658 34.3325 57.5658C34.4205 57.5658 34.4901 57.5912 34.5412 57.6427C34.5924 57.6935 34.6172 57.7585 34.6172 57.8386C34.6172 57.9108 34.5932 57.9719 34.5444 58.0195C34.4965 58.0679 34.4365 58.0917 34.3645 58.0917L34.2917 58.0893L34.2158 58.0869C34.175 58.0869 34.135 58.1028 34.095 58.1321C34.1766 58.2678 34.2182 58.3979 34.2182 58.5216C34.2182 58.6525 34.1774 58.781 34.0958 58.9048C34.0134 59.0285 33.9015 59.1253 33.7567 59.1935C33.612 59.2625 33.4377 59.2966 33.2361 59.2966C33.1778 59.2966 33.1186 59.2934 33.0602 59.2863C33.001 59.28 32.9411 59.2696 32.8811 59.2562C32.8411 59.2815 32.8107 59.3061 32.7891 59.3299C32.7683 59.3537 32.7579 59.3751 32.7579 59.3958C32.7579 59.4418 32.8059 59.4711 32.9019 59.4838L33.8319 59.6147C34.1086 59.6536 34.3077 59.7266 34.4293 59.8336C34.5516 59.9423 34.6124 60.0724 34.6124 60.2231C34.6124 60.3556 34.5668 60.4785 34.4741 60.592C34.3813 60.7038 34.2302 60.7966 34.0214 60.8688C33.8111 60.941 33.5464 60.9775 33.2273 60.9775C32.9466 60.9775 32.7147 60.9505 32.5308 60.8966C32.3485 60.8426 32.2181 60.7744 32.1414 60.6935C32.0662 60.6118 32.0278 60.5333 32.0278 60.4595C32.0278 60.3754 32.0558 60.3001 32.1126 60.2326C32.1693 60.166 32.2861 60.0891 32.4628 60.0018C32.3525 59.9613 32.2693 59.913 32.2133 59.8551C32.1382 59.7781 32.1014 59.6988 32.1014 59.6171C32.1014 59.5282 32.1366 59.441 32.2061 59.3545C32.2757 59.2681 32.3797 59.1832 32.5188 59.0991C32.4412 59.0515 32.3813 58.9999 32.3365 58.9444C32.2933 58.8889 32.2573 58.8207 32.2293 58.7406C32.2021 58.6604 32.1885 58.5787 32.1885 58.4939C32.1885 58.2718 32.2805 58.083 32.4628 57.9267C32.646 57.7712 32.8867 57.6935 33.1858 57.6935C33.3185 57.6935 33.4393 57.7085 33.5496 57.7395C33.6592 57.7696 33.7583 57.8156 33.8447 57.8767ZM33.2073 58.121C33.1122 58.121 33.0322 58.1559 32.9706 58.2265C32.9083 58.2956 32.8771 58.3892 32.8771 58.5089C32.8771 58.6176 32.9067 58.7049 32.9674 58.7707C33.0274 58.8357 33.1042 58.8683 33.1986 58.8683C33.2913 58.8683 33.3689 58.835 33.4313 58.7675C33.4928 58.7001 33.5248 58.6128 33.5248 58.5066C33.5248 58.3868 33.4944 58.294 33.4361 58.2249C33.3769 58.1559 33.3001 58.121 33.2073 58.121ZM32.8819 60.1081C32.8027 60.1684 32.7523 60.2144 32.7299 60.2461C32.7083 60.2779 32.6979 60.3128 32.6979 60.3508C32.6979 60.423 32.7579 60.4801 32.8779 60.5206C32.997 60.5602 33.1514 60.5809 33.3377 60.5809C33.4744 60.5809 33.5952 60.569 33.7 60.5452C33.8047 60.5222 33.8743 60.4928 33.9087 60.4595C33.9311 60.4373 33.9423 60.4071 33.9423 60.3683C33.9423 60.3262 33.9199 60.2905 33.8751 60.2612C33.8295 60.2326 33.7215 60.208 33.5488 60.1874L32.8819 60.1081Z" fill="#1B699A"/>
<path d="M38.4414 57.9212H39.5393V58.3495H39.4034C39.3274 58.3495 39.2738 58.3566 39.2435 58.3709C39.2139 58.3868 39.1891 58.4114 39.1699 58.4463C39.1579 58.4661 39.1331 58.5478 39.0955 58.6946C39.0707 58.7874 39.0307 58.8913 38.9772 59.0055C38.9228 59.1197 38.8636 59.2236 38.7972 59.3165C38.8636 59.4148 38.918 59.4799 38.9628 59.51C39.0067 59.5409 39.0507 59.556 39.0955 59.556C39.1483 59.556 39.1923 59.5386 39.2283 59.5044C39.2642 59.4695 39.2818 59.4259 39.2818 59.3712C39.2818 59.318 39.2594 59.2538 39.2147 59.18C39.1707 59.1118 39.1499 59.0531 39.1499 59.0031C39.1499 58.9286 39.1795 58.8619 39.2387 58.8056C39.2994 58.7493 39.3714 58.7215 39.4546 58.7215C39.5641 58.7215 39.6569 58.7644 39.7313 58.85C39.8056 58.9365 39.8424 59.0579 39.8424 59.2157C39.8424 59.4457 39.7593 59.6361 39.5937 59.786C39.429 59.9368 39.2099 60.0113 38.938 60.0113C38.802 60.0113 38.6893 59.9947 38.5989 59.9606C38.5093 59.9264 38.4126 59.8614 38.3078 59.7646C38.0687 59.9296 37.7904 60.0113 37.4737 60.0113C37.1355 60.0113 36.8612 59.9153 36.65 59.7234C36.4397 59.5314 36.3342 59.2966 36.3342 59.019C36.3342 58.7866 36.4021 58.5843 36.5373 58.4137C36.6436 58.2773 36.8228 58.1401 37.0723 58.0028C36.9675 57.9362 36.8883 57.8585 36.8356 57.7704C36.7828 57.6824 36.7564 57.5848 36.7564 57.4761C36.7564 57.2913 36.8292 57.1335 36.9755 57.0042C37.1203 56.8741 37.3114 56.8098 37.5465 56.8098C37.7848 56.8098 37.9719 56.8693 38.1063 56.9891C38.2414 57.1081 38.3086 57.2572 38.3086 57.4389C38.3086 57.5904 38.2702 57.7181 38.1942 57.8252C38.1351 57.9085 38.0447 57.9806 37.9232 58.0409C38.0071 58.0782 38.0719 58.1171 38.1199 58.1583C38.1855 58.2162 38.2518 58.2956 38.319 58.3963C38.3622 58.4598 38.4462 58.6184 38.5717 58.8714C38.6581 58.6771 38.7021 58.5375 38.7021 58.4534C38.7021 58.4296 38.6941 58.4082 38.6797 58.3899C38.6645 58.3717 38.6445 58.3606 38.6181 58.3558C38.6005 58.3511 38.5421 58.3495 38.4414 58.3495V57.9212ZM37.5417 57.2199C37.4729 57.2199 37.4161 57.2469 37.3722 57.3008C37.329 57.3556 37.3074 57.4341 37.3074 57.5388C37.3074 57.63 37.3298 57.703 37.3746 57.7577C37.4201 57.8117 37.4737 57.8386 37.5345 57.8386C37.5737 57.8386 37.6129 57.8267 37.6521 57.803C37.6904 57.7776 37.7184 57.7458 37.7352 57.7054C37.7592 57.653 37.7712 57.5935 37.7712 57.5269C37.7712 57.423 37.7488 57.3453 37.704 57.2953C37.6585 57.2445 37.6041 57.2199 37.5417 57.2199ZM37.5345 58.2718C37.389 58.3455 37.2794 58.4375 37.2042 58.547C37.1291 58.6573 37.0915 58.7747 37.0915 58.9008C37.0915 59.0634 37.1474 59.2006 37.2594 59.3141C37.3706 59.4267 37.5049 59.483 37.6625 59.483C37.7832 59.483 37.9056 59.4569 38.0279 59.4029C37.9935 59.3466 37.9655 59.2855 37.9431 59.2189L37.8224 58.804C37.7784 58.6589 37.7432 58.5581 37.7168 58.5002C37.6896 58.4423 37.6632 58.3987 37.6377 58.3677C37.6129 58.336 37.5785 58.3043 37.5345 58.2718Z" fill="#1B699A"/>
<path d="M43.9872 56.8598H44.3055L44.6126 57.9735L44.1952 58.0933C44.056 57.8283 43.9249 57.6411 43.8025 57.5301C43.6322 57.3778 43.4474 57.3016 43.2483 57.3016C43.1036 57.3016 42.9684 57.3421 42.8421 57.4214C42.7157 57.5015 42.6158 57.6189 42.5414 57.7736C42.467 57.9291 42.4302 58.1107 42.4302 58.3194C42.4302 58.6366 42.515 58.9103 42.6853 59.1396C42.8541 59.3688 43.0772 59.483 43.3515 59.483C43.5274 59.483 43.6945 59.4338 43.8561 59.3347C44.0584 59.2125 44.2327 59.0475 44.3791 58.8405L44.7262 59.0959C44.5006 59.4013 44.2943 59.6139 44.108 59.7337C43.8193 59.9193 43.4986 60.0113 43.1444 60.0113C42.8501 60.0113 42.5838 59.9415 42.3455 59.8019C42.1072 59.6623 41.9176 59.4664 41.7753 59.2157C41.6337 58.9635 41.5626 58.689 41.5626 58.3915C41.5626 58.0957 41.6313 57.826 41.7697 57.5832C41.9072 57.3397 42.096 57.1493 42.3351 57.0137C42.5726 56.878 42.8381 56.8098 43.1308 56.8098C43.4283 56.8098 43.6882 56.8709 43.9129 56.9931L43.9872 56.8598Z" fill="#1B699A"/>
<path d="M46.2152 57.6935C46.4703 57.6935 46.6934 57.7427 46.8829 57.8418C47.0733 57.941 47.2188 58.0758 47.3212 58.2456C47.4243 58.4169 47.4755 58.6168 47.4755 58.8453C47.4755 59.1919 47.3619 59.4727 47.1348 59.6885C46.9077 59.9042 46.6038 60.0113 46.224 60.0113C45.8369 60.0113 45.5291 59.9034 45.3003 59.6861C45.0788 59.4791 44.9685 59.1983 44.9685 58.8453C44.9685 58.6144 45.0188 58.4145 45.1196 58.2472C45.2204 58.0806 45.3667 57.9457 45.5578 57.845C45.7498 57.7442 45.9681 57.6935 46.2152 57.6935ZM46.2264 58.1805C46.1408 58.1805 46.0601 58.2059 45.9849 58.2559C45.9105 58.3059 45.8521 58.3796 45.8105 58.4772C45.7698 58.5748 45.749 58.6985 45.749 58.8492C45.749 59.0039 45.769 59.1324 45.8089 59.234C45.8497 59.3363 45.9065 59.4116 45.9777 59.4608C46.0489 59.5092 46.1272 59.5338 46.2128 59.5338C46.3447 59.5338 46.4583 59.4791 46.5535 59.3688C46.647 59.2585 46.695 59.088 46.695 58.8556C46.695 58.6319 46.651 58.4629 46.5631 58.3503C46.4751 58.2369 46.3623 58.1805 46.2264 58.1805Z" fill="#1B699A"/>
<path d="M48.8078 57.6935V57.9886C48.9765 57.8743 49.1221 57.7966 49.242 57.7554C49.3636 57.7141 49.4868 57.6935 49.6131 57.6935C49.7578 57.6935 49.8866 57.7236 49.9978 57.7847C50.1097 57.845 50.1913 57.9211 50.2417 58.0124C50.2928 58.1028 50.3184 58.2321 50.3184 58.3995V59.322C50.3184 59.4013 50.324 59.4513 50.3352 59.4735C50.3456 59.4957 50.3632 59.5124 50.388 59.5219C50.4056 59.5298 50.4592 59.5338 50.5487 59.5338H50.6583V59.9613H49.3452V59.5338C49.4436 59.5322 49.4995 59.5298 49.5107 59.5267C49.5483 59.5163 49.5723 59.4989 49.5843 59.4759C49.5963 59.4521 49.6019 59.4013 49.6019 59.3228V58.5113C49.6019 58.4066 49.5907 58.3392 49.5683 58.3082C49.5323 58.2567 49.4756 58.2305 49.398 58.2305C49.3332 58.2305 49.2644 58.244 49.1909 58.2725C49.1173 58.3003 49.0189 58.3582 48.895 58.4455V59.3228C48.895 59.4188 48.9054 59.4783 48.927 59.4997C48.9478 59.5219 48.9989 59.5338 49.0797 59.5338H49.1517V59.9613H47.8482V59.5338H47.9129C48.0153 59.5338 48.0793 59.529 48.1033 59.5203C48.1281 59.5116 48.1473 59.4957 48.1593 59.4735C48.172 59.4513 48.1784 59.4085 48.1784 59.3426V58.313H47.8482V57.8847C48.1161 57.8513 48.3672 57.7871 48.6007 57.6935H48.8078Z" fill="#1B699A"/>
<path d="M52.4576 57.7435H52.7503L52.9318 58.3622L52.5096 58.5311C52.4288 58.4034 52.3281 58.3035 52.2065 58.2305C52.085 58.1575 51.9634 58.121 51.8442 58.121C51.7659 58.121 51.7067 58.1345 51.6675 58.1607C51.6283 58.1869 51.6091 58.2186 51.6091 58.2551C51.6091 58.2852 51.6235 58.3146 51.6507 58.34C51.6779 58.3669 51.7355 58.3947 51.8219 58.4233L52.4376 58.6414C52.5472 58.6795 52.6511 58.7279 52.7511 58.7858C52.8519 58.8437 52.9262 58.9143 52.9766 58.9976C53.0262 59.0809 53.051 59.1792 53.051 59.2911C53.051 59.4917 52.9742 59.6567 52.8183 59.7853C52.6367 59.9368 52.4088 60.0113 52.1377 60.0113C51.905 60.0113 51.7019 59.9542 51.5292 59.8392L51.466 59.9613H51.1685L50.8934 59.2363L51.3157 59.0594C51.4212 59.2228 51.5524 59.3506 51.7067 59.4442C51.861 59.537 52.0034 59.5838 52.1337 59.5838C52.2137 59.5838 52.2817 59.5655 52.3361 59.5282C52.3784 59.4981 52.3992 59.4632 52.3992 59.4235C52.3992 59.3894 52.3832 59.3577 52.3505 59.326C52.3185 59.295 52.2465 59.2601 52.1353 59.2213L51.6515 59.0547C51.3844 58.9619 51.2029 58.8619 51.1069 58.7572C51.0102 58.6501 50.9622 58.5256 50.9622 58.3804C50.9622 58.194 51.0374 58.0378 51.1877 57.91C51.3596 57.7657 51.5723 57.6935 51.8235 57.6935C52.0482 57.6935 52.2393 57.7427 52.3992 57.8418L52.4576 57.7435Z" fill="#1B699A"/>
<path d="M54.3369 56.9827V57.7435H55.0582V58.217H54.3369V58.9904C54.3369 59.1649 54.3465 59.2776 54.3657 59.3268C54.3841 59.3767 54.4185 59.4164 54.4697 59.4457C54.536 59.4862 54.6136 59.506 54.7 59.506C54.8535 59.506 55.007 59.4569 55.159 59.3577V59.8328C55.0286 59.8939 54.9111 59.9368 54.8063 59.9613C54.7008 59.9859 54.5864 59.9978 54.4641 59.9978C54.3249 59.9978 54.2018 59.9804 54.0954 59.9455C53.9882 59.9106 53.8971 59.8614 53.8211 59.7971C53.7459 59.7321 53.6931 59.6639 53.6644 59.5909C53.6356 59.5179 53.6204 59.4132 53.6204 59.2752V58.217H53.2901V57.7887C53.4093 57.7506 53.5116 57.6959 53.5964 57.6245C53.6804 57.5523 53.7483 57.4666 53.8003 57.3659C53.8515 57.2651 53.8867 57.1374 53.9059 56.9827H54.3369Z" fill="#1B699A"/>
<path d="M56.4313 57.6935V58.0163C56.5513 57.8918 56.6552 57.8061 56.7432 57.7617C56.8303 57.7157 56.9151 57.6935 56.9967 57.6935C57.0703 57.6935 57.1358 57.7101 57.1934 57.7435C57.251 57.7768 57.2974 57.8244 57.331 57.887C57.3645 57.9489 57.3813 58.0155 57.3813 58.0869C57.3813 58.1805 57.3502 58.2646 57.2878 58.3408C57.2262 58.4161 57.139 58.4542 57.0263 58.4542C56.9967 58.4542 56.9695 58.4518 56.9463 58.4471C56.9231 58.4423 56.8743 58.428 56.7992 58.4034C56.76 58.3915 56.728 58.386 56.7024 58.386C56.664 58.386 56.5992 58.4098 56.5089 58.4582V59.3252C56.5089 59.3989 56.5145 59.4465 56.5257 59.4687C56.5369 59.4917 56.5553 59.5076 56.5792 59.5179C56.6048 59.5282 56.6592 59.5338 56.7424 59.5338H56.84V59.9613H55.4621V59.5338H55.5772C55.6596 59.5338 55.7108 59.529 55.7308 59.5195C55.7516 59.5116 55.7668 59.4957 55.7764 59.4735C55.7875 59.4513 55.7923 59.4021 55.7923 59.3252V58.3082H55.4621V57.8807C55.7052 57.8656 55.9579 57.803 56.2202 57.6935H56.4313Z" fill="#1B699A"/>
<path d="M57.5005 57.7435L58.5481 57.7252V59.1634C58.5481 59.2665 58.5537 59.3339 58.5673 59.368C58.5801 59.4021 58.6033 59.4291 58.6377 59.4513C58.6713 59.4727 58.7136 59.483 58.7648 59.483C58.84 59.483 58.92 59.4656 59.0047 59.4299C59.0375 59.4156 59.1255 59.3633 59.2686 59.2736V58.4066C59.2686 58.332 59.2622 58.2797 59.2502 58.2511C59.239 58.2234 59.2214 58.2027 59.1991 58.1908C59.1767 58.1774 59.1335 58.1718 59.0679 58.1718H58.9384V57.7435L59.9851 57.7252V59.3117C59.9851 59.3942 59.9899 59.4457 59.9995 59.468C60.0091 59.4894 60.0243 59.5044 60.0451 59.5148C60.0667 59.5243 60.1179 59.529 60.1987 59.529H60.3154V59.9613L59.3374 59.9891V59.725C59.2062 59.8202 59.0735 59.8915 58.9407 59.9399C58.8072 59.9875 58.6736 60.0113 58.5385 60.0113C58.4305 60.0113 58.3322 59.9939 58.241 59.959C58.1506 59.9241 58.0747 59.8781 58.0139 59.8194C57.9515 59.7615 57.9067 59.6924 57.8764 59.6147C57.8468 59.5354 57.8316 59.4354 57.8316 59.3125V58.3979C57.8316 58.3138 57.8268 58.2606 57.8172 58.2384C57.8068 58.2154 57.7908 58.1996 57.7684 58.1885C57.746 58.1766 57.698 58.1718 57.6245 58.1718H57.5005V57.7435Z" fill="#1B699A"/>
<path d="M62.6273 59.1221L62.9568 59.4077C62.7809 59.6187 62.5978 59.7718 62.4082 59.8677C62.2179 59.9637 62.0156 60.0113 61.7989 60.0113C61.4518 60.0113 61.1631 59.9003 60.9312 59.6766C60.6993 59.4537 60.5825 59.1816 60.5825 58.8619C60.5825 58.6446 60.6369 58.4455 60.7449 58.2646C60.8536 58.0853 61.0024 57.9449 61.1911 57.8442C61.3806 57.7435 61.6029 57.6935 61.8604 57.6935C62.1675 57.6935 62.4186 57.7641 62.6137 57.9061C62.8089 58.0473 62.9064 58.1964 62.9064 58.3535C62.9064 58.4201 62.8912 58.4796 62.8601 58.5319C62.8297 58.5851 62.7833 58.6279 62.7201 58.6604C62.6577 58.693 62.5914 58.7088 62.5202 58.7088C62.4642 58.7088 62.4122 58.6977 62.3682 58.6755C62.3235 58.6533 62.2859 58.6255 62.2555 58.5914C62.2427 58.5771 62.2171 58.5311 62.1779 58.455C62.1283 58.359 62.0907 58.2955 62.0628 58.2638C62.0364 58.2329 62.0044 58.2091 61.9668 58.1924C61.93 58.175 61.8868 58.167 61.8388 58.167C61.7613 58.167 61.6869 58.1916 61.6157 58.2408C61.5446 58.29 61.487 58.3654 61.4406 58.4653C61.3958 58.5653 61.3726 58.6771 61.3726 58.8008C61.3726 58.9365 61.399 59.0578 61.4526 59.1665C61.507 59.2752 61.5789 59.3577 61.6693 59.4124C61.7597 59.4688 61.8596 59.4973 61.9692 59.4973C62.0732 59.4973 62.1787 59.4688 62.2851 59.4132C62.3906 59.3577 62.505 59.2601 62.6273 59.1221Z" fill="#1B699A"/>
<path d="M64.2563 56.9827V57.7435H64.9768V58.217H64.2563V58.9904C64.2563 59.1649 64.2651 59.2776 64.2843 59.3268C64.3027 59.3767 64.3371 59.4164 64.3891 59.4457C64.4554 59.4862 64.5322 59.506 64.6194 59.506C64.7729 59.506 64.9257 59.4569 65.0784 59.3577V59.8328C64.9481 59.8939 64.8305 59.9368 64.7257 59.9613C64.6202 59.9859 64.5058 59.9978 64.3835 59.9978C64.2443 59.9978 64.1212 59.9804 64.014 59.9455C63.9077 59.9106 63.8165 59.8614 63.7405 59.7971C63.6653 59.7321 63.6126 59.6639 63.5838 59.5909C63.5542 59.5179 63.5398 59.4132 63.5398 59.2752V58.217H63.2095V57.7887C63.3287 57.7506 63.4302 57.6959 63.5158 57.6245C63.5998 57.5523 63.6677 57.4666 63.7197 57.3659C63.7709 57.2651 63.8061 57.1374 63.8253 56.9827H64.2563Z" fill="#1B699A"/>
<path d="M66.0492 56.7004C66.1636 56.7004 66.2596 56.74 66.3403 56.8193C66.4203 56.8987 66.4603 56.9939 66.4603 57.1065C66.4603 57.2207 66.4203 57.3175 66.3403 57.3968C66.2596 57.4761 66.1636 57.5158 66.0492 57.5158C65.9357 57.5158 65.8389 57.4761 65.7589 57.3968C65.6782 57.3175 65.6382 57.2215 65.6382 57.1089C65.6382 56.9978 65.6798 56.9026 65.7614 56.8209C65.8445 56.7408 65.9397 56.7004 66.0492 56.7004ZM66.4147 57.6935V59.3339C66.4147 59.4116 66.4187 59.4608 66.4283 59.4783C66.4363 59.4957 66.4531 59.5092 66.4763 59.5187C66.4995 59.529 66.5515 59.5338 66.633 59.5338H66.7546V59.9614H65.3671V59.5338H65.4863C65.563 59.5338 65.6134 59.5298 65.635 59.5211C65.6558 59.5132 65.6718 59.4989 65.683 59.4807C65.6926 59.4616 65.6982 59.4227 65.6982 59.3648V58.3083H65.3671V57.8894C65.4855 57.8831 65.599 57.8712 65.707 57.8513C65.8149 57.8323 65.9125 57.8085 65.9973 57.7823C66.0524 57.7649 66.1204 57.7347 66.202 57.6935H66.4147Z" fill="#1B699A"/>
<path d="M68.2572 57.6935C68.5131 57.6935 68.7354 57.7427 68.9257 57.8418C69.1161 57.941 69.2616 58.0758 69.364 58.2456C69.4663 58.4169 69.5175 58.6168 69.5175 58.8453C69.5175 59.1919 69.4048 59.4727 69.1777 59.6885C68.9497 59.9042 68.6459 60.0113 68.2668 60.0113C67.8789 60.0113 67.5719 59.9034 67.3431 59.6861C67.1216 59.4791 67.0105 59.1983 67.0105 58.8453C67.0105 58.6144 67.0609 58.4145 67.1624 58.2472C67.2632 58.0806 67.4095 57.9457 67.6006 57.845C67.7918 57.7442 68.0109 57.6935 68.2572 57.6935ZM68.2684 58.1805C68.1828 58.1805 68.1029 58.2059 68.0277 58.2559C67.9525 58.3059 67.8949 58.3796 67.8534 58.4772C67.8118 58.5748 67.791 58.6985 67.791 58.8492C67.791 59.0039 67.811 59.1324 67.8518 59.234C67.8925 59.3363 67.9493 59.4116 68.0197 59.4608C68.0909 59.5092 68.1692 59.5338 68.2548 59.5338C68.3876 59.5338 68.5003 59.4791 68.5955 59.3688C68.6898 59.2585 68.737 59.088 68.737 58.8556C68.737 58.6319 68.6938 58.4629 68.6059 58.3503C68.5179 58.2369 68.4051 58.1805 68.2684 58.1805Z" fill="#1B699A"/>
<path d="M70.8498 57.6935V57.9886C71.0193 57.8743 71.1649 57.7966 71.2848 57.7554C71.4056 57.7141 71.5288 57.6935 71.6551 57.6935C71.8007 57.6935 71.9294 57.7236 72.0406 57.7847C72.1517 57.845 72.2341 57.9211 72.2845 58.0124C72.3356 58.1028 72.3612 58.2321 72.3612 58.3995V59.322C72.3612 59.4013 72.366 59.4513 72.378 59.4735C72.3884 59.4957 72.406 59.5124 72.4308 59.5219C72.4484 59.5298 72.502 59.5338 72.5915 59.5338H72.7003V59.9613H71.3872V59.5338C71.4864 59.5322 71.5424 59.5298 71.5535 59.5267C71.5911 59.5163 71.6143 59.4989 71.6271 59.4759C71.6383 59.4521 71.6447 59.4013 71.6447 59.3228V58.5113C71.6447 58.4066 71.6327 58.3392 71.6111 58.3082C71.5751 58.2567 71.5184 58.2305 71.44 58.2305C71.376 58.2305 71.3072 58.244 71.2337 58.2725C71.1601 58.3003 71.0617 58.3582 70.9378 58.4455V59.3228C70.9378 59.4188 70.9482 59.4783 70.9698 59.4997C70.9906 59.5219 71.0417 59.5338 71.1217 59.5338H71.1945V59.9613H69.8902V59.5338H69.9557C70.0581 59.5338 70.1213 59.529 70.1461 59.5203C70.1709 59.5116 70.1901 59.4957 70.2021 59.4735C70.2149 59.4513 70.2212 59.4085 70.2212 59.3426V58.313H69.8902V57.8847C70.1581 57.8513 70.4092 57.7871 70.6427 57.6935H70.8498Z" fill="#1B699A"/>
<path d="M76.3789 58.3083H77.9079V58.7366H77.7936C77.7192 58.7366 77.668 58.7429 77.6408 58.7564C77.6128 58.7699 77.5928 58.7913 77.5784 58.8199C77.5657 58.8484 77.5585 58.904 77.5585 58.9865V59.9614H77.0994L76.9811 59.7385C76.8411 59.8297 76.6948 59.8979 76.5436 59.9431C76.3933 59.9891 76.2366 60.0113 76.0742 60.0113C75.7887 60.0113 75.5288 59.9423 75.2945 59.8051C75.0602 59.6679 74.8739 59.4759 74.7379 59.2284C74.6012 58.9817 74.5324 58.7049 74.5324 58.3987C74.5324 58.0949 74.6004 57.8236 74.7355 57.584C74.8699 57.3445 75.0594 57.1557 75.3017 57.0169C75.5448 56.8788 75.8079 56.8098 76.0918 56.8098C76.2286 56.8098 76.3661 56.8273 76.5029 56.8614C76.6388 56.8955 76.7564 56.9407 76.8531 56.9978L76.9355 56.8598H77.2498L77.5321 57.8878L77.1194 58.0211C76.9787 57.7966 76.8683 57.6435 76.7868 57.561C76.7052 57.4801 76.6124 57.4159 76.5069 57.3706C76.4005 57.3246 76.2981 57.3016 76.1982 57.3016C76.0566 57.3016 75.9239 57.3429 75.8007 57.4238C75.6776 57.5047 75.58 57.6245 75.5088 57.7799C75.4369 57.9362 75.4009 58.125 75.4009 58.3471C75.4009 58.5914 75.4401 58.8032 75.5176 58.9825C75.5968 59.1618 75.6992 59.2942 75.8255 59.3807C75.9527 59.4672 76.0918 59.5108 76.2438 59.5108C76.3509 59.5108 76.4533 59.4894 76.5492 59.4458C76.646 59.4029 76.7116 59.3545 76.7476 59.3014C76.7836 59.2474 76.8011 59.1753 76.8011 59.0848V58.9706C76.8011 58.8921 76.7955 58.8421 76.7851 58.8215C76.7692 58.7913 76.7468 58.7699 76.7196 58.7564C76.6916 58.7429 76.6372 58.7366 76.5564 58.7366H76.3789V58.3083Z" fill="#1B699A"/>
<path d="M79.1147 57.6935V58.0163C79.2346 57.8918 79.3394 57.8061 79.4273 57.7617C79.5145 57.7157 79.5993 57.6935 79.68 57.6935C79.7536 57.6935 79.8192 57.7101 79.8768 57.7435C79.9352 57.7768 79.9807 57.8244 80.0151 57.887C80.0487 57.9489 80.0655 58.0155 80.0655 58.0869C80.0655 58.1805 80.0335 58.2646 79.9719 58.3408C79.9096 58.4161 79.8224 58.4542 79.7104 58.4542C79.68 58.4542 79.6537 58.4518 79.6297 58.4471C79.6065 58.4423 79.5577 58.428 79.4825 58.4034C79.4441 58.3915 79.4113 58.386 79.3866 58.386C79.3474 58.386 79.2834 58.4098 79.193 58.4582V59.3252C79.193 59.3989 79.1978 59.4465 79.2098 59.4687C79.2202 59.4917 79.2386 59.5076 79.2634 59.5179C79.2882 59.5282 79.3426 59.5338 79.4265 59.5338H79.5233V59.9613H78.1454V59.5338H78.2606C78.343 59.5338 78.3941 59.529 78.4141 59.5195C78.4349 59.5116 78.4501 59.4957 78.4605 59.4735C78.4709 59.4513 78.4765 59.4021 78.4765 59.3252V58.3082H78.1454V57.8807C78.3893 57.8656 78.642 57.803 78.9043 57.6935H79.1147Z" fill="#1B699A"/>
<path d="M81.4818 57.6935C81.7377 57.6935 81.96 57.7427 82.1503 57.8418C82.3406 57.941 82.4862 58.0758 82.5885 58.2456C82.6909 58.4169 82.7421 58.6168 82.7421 58.8453C82.7421 59.1919 82.6293 59.4727 82.4014 59.6885C82.1743 59.9042 81.8704 60.0113 81.4914 60.0113C81.1035 60.0113 80.7964 59.9034 80.5677 59.6861C80.3462 59.4791 80.235 59.1983 80.235 58.8453C80.235 58.6144 80.2854 58.4145 80.387 58.2472C80.4877 58.0806 80.6341 57.9457 80.8252 57.845C81.0163 57.7442 81.2355 57.6935 81.4818 57.6935ZM81.493 58.1805C81.4074 58.1805 81.3274 58.2059 81.2523 58.2559C81.1771 58.3059 81.1187 58.3796 81.0779 58.4772C81.0363 58.5748 81.0155 58.6985 81.0155 58.8492C81.0155 59.0039 81.0355 59.1324 81.0763 59.234C81.1171 59.3363 81.1731 59.4116 81.2443 59.4608C81.3154 59.5092 81.3938 59.5338 81.4794 59.5338C81.6121 59.5338 81.7249 59.4791 81.82 59.3688C81.9144 59.2585 81.9616 59.088 81.9616 58.8556C81.9616 58.6319 81.9184 58.4629 81.8296 58.3503C81.7417 58.2369 81.6297 58.1805 81.493 58.1805Z" fill="#1B699A"/>
<path d="M83.0324 57.7435L84.0792 57.7252V59.1634C84.0792 59.2665 84.0856 59.3339 84.0984 59.368C84.1112 59.4021 84.1343 59.4291 84.1687 59.4513C84.2023 59.4727 84.2455 59.483 84.2967 59.483C84.3719 59.483 84.451 59.4656 84.5358 59.4299C84.5694 59.4156 84.6574 59.3633 84.8005 59.2736V58.4066C84.8005 58.332 84.7941 58.2797 84.7821 58.2511C84.7701 58.2234 84.7525 58.2027 84.7309 58.1908C84.7085 58.1774 84.6645 58.1718 84.5998 58.1718H84.4694V57.7435L85.5162 57.7252V59.3117C85.5162 59.3942 85.521 59.4457 85.5314 59.468C85.5402 59.4894 85.5554 59.5044 85.577 59.5148C85.5986 59.5243 85.6498 59.529 85.7297 59.529H85.8473V59.9613L84.8693 59.9891V59.725C84.7373 59.8202 84.6054 59.8915 84.4718 59.9399C84.3391 59.9875 84.2047 60.0113 84.0704 60.0113C83.9624 60.0113 83.8633 59.9939 83.7721 59.959C83.6817 59.9241 83.6065 59.8781 83.545 59.8194C83.4834 59.7615 83.4378 59.6924 83.4082 59.6147C83.3786 59.5354 83.3626 59.4354 83.3626 59.3125V58.3979C83.3626 58.3138 83.3586 58.2606 83.3482 58.2384C83.3386 58.2154 83.3227 58.1996 83.3003 58.1885C83.2771 58.1766 83.2299 58.1718 83.1563 58.1718H83.0324V57.7435Z" fill="#1B699A"/>
<path d="M87.0828 57.6935V57.9441C87.254 57.8379 87.3843 57.7704 87.4739 57.7395C87.5642 57.7086 87.6618 57.6935 87.7642 57.6935C88.0257 57.6935 88.2384 57.7887 88.4031 57.9798C88.5919 58.198 88.6854 58.4772 88.6854 58.8167C88.6854 59.1419 88.6038 59.414 88.4391 59.6329C88.2512 59.886 87.9985 60.0113 87.6818 60.0113C87.5802 60.0113 87.4915 60.0002 87.4147 59.9772C87.3387 59.955 87.2556 59.913 87.166 59.8519V60.3024C87.166 60.3921 87.1708 60.446 87.1796 60.4635C87.1892 60.4865 87.2068 60.5023 87.23 60.5119C87.2532 60.5222 87.3115 60.5261 87.4043 60.5261H87.5099V60.9545H86.1192V60.5261H86.1944C86.2967 60.5261 86.3583 60.5222 86.3799 60.5142C86.4015 60.5055 86.4183 60.4889 86.4303 60.4635C86.4431 60.4373 86.4495 60.3841 86.4495 60.3048V58.3217H86.1192V57.8847C86.2799 57.8656 86.4167 57.841 86.5294 57.8125C86.6422 57.7847 86.7573 57.7443 86.8733 57.6935H87.0828ZM87.166 58.3899V59.1086C87.166 59.2213 87.1764 59.3022 87.198 59.3498C87.2204 59.3966 87.258 59.4354 87.3107 59.4656C87.3635 59.4957 87.4243 59.5108 87.4931 59.5108C87.6146 59.5108 87.7146 59.4561 87.7938 59.3458C87.8745 59.2355 87.9145 59.069 87.9145 58.8445C87.9145 58.6358 87.8801 58.482 87.8106 58.3812C87.7402 58.2805 87.6546 58.2305 87.5538 58.2305C87.4371 58.2305 87.3075 58.2837 87.166 58.3899Z" fill="#1B699A"/>
</g>
<defs>
<linearGradient id="paint0_linear_2_441" x1="0" y1="30.5007" x2="105" y2="30.5007" gradientUnits="userSpaceOnUse">
<stop stop-color="#CFB872"/>
<stop offset="0.431373" stop-color="#D3B459"/>
<stop offset="0.729412" stop-color="#D0C575"/>
<stop offset="0.901961" stop-color="#B39E41"/>
<stop offset="1" stop-color="#CFAD56"/>
</linearGradient>
<clipPath id="clip0_2_441">
<rect width="105" height="61" fill="white"/>
</clipPath>
</defs>
</svg>
