<svg width="109" height="72" viewBox="0 0 109 72" fill="none" xmlns="http://www.w3.org/2000/svg">
<path fill-rule="evenodd" clip-rule="evenodd" d="M82.1095 14.8388L82.0505 6.40195C80.5172 6.29103 79.4596 6.16798 78.7847 6.39449H77.7727V9.86392C77.7702 10.5285 77.7711 11.1484 77.7271 11.8941C76.1315 11.3311 69.0776 6.79345 64.0261 3.62044L64.0709 3.57942L62.0163 2.36671C60.747 1.58184 59.74 0.979681 59.1838 0.693514L58.2349 0.133296L56.6983 0.843588C55.0919 1.45134 53.7495 2.33595 52.2893 3.29233L47.4005 5.92749C47.3 5.92935 47.1996 5.92563 47.0983 5.91444L38.5419 0.890195C38.1841 0.64411 37.8927 0.453953 37.598 0.351417L37.0218 0L36.1668 0.511746C35.8604 0.652499 35.506 0.858503 35.0784 1.14094L33.6215 2.03393L33.5526 2.07495L33.5518 2.07681L20.9715 9.78283C14.7437 13.8693 8.1306 17.555 2.18915 21.2985C2.52287 23.1264 3.19779 24.3494 4.0321 25.427L20.5539 15.4475C22.4434 14.3419 36.3635 5.75504 37.0592 5.78301L61.8046 20.4512C63.6824 21.6024 68.2981 24.7847 70.107 25.3244L71.9583 21.4309C68.015 18.6279 54.0575 10.9564 52.3308 9.11635C52.4777 8.97746 53.0929 8.54028 53.8442 8.03506L53.8475 8.04438L57.423 5.97689C57.4496 5.97783 57.477 5.97876 57.506 5.98062L63.3827 8.71925C67.3027 10.9732 71.779 13.901 72.8698 14.5694C79.4804 18.6214 86.8074 22.4208 93.1622 27.0526L93.2809 44.822L97.5687 44.8631L97.7455 39.245L97.7796 29.7213L107.232 35.2266L109 31.0441C99.9878 26.4001 91.2346 19.7828 82.1095 14.8388Z" fill="white"/>
<path fill-rule="evenodd" clip-rule="evenodd" d="M12.1369 55.1429C14.6141 54.4848 17.6957 52.6335 22.8244 51.4404C35.3199 48.534 46.1759 50.8308 56.5181 58.2087C65.8117 64.839 78.9864 66.4386 89.4331 60.1559C93.7798 57.5422 94.3618 56.4348 97.2117 53.7008C94.204 55.4216 91.9369 57.4089 88.0384 58.9861C62.7899 69.2005 57.6255 45.8513 32.7074 47.5813C26.6423 48.0027 15.3554 51.3882 12.1369 55.1429Z" fill="white"/>
<path fill-rule="evenodd" clip-rule="evenodd" d="M11.066 60.7386C18.662 58.4017 23.76 55.939 33.0761 55.8411C37.1281 55.7992 41.596 56.3762 45.2487 57.4071C48.6241 58.3607 53.7977 60.7721 55.2721 61.1096C54.8371 60.3685 55.1857 60.8542 54.7076 60.2781C54.6702 60.2324 54.148 59.7132 54.0982 59.6694C42.7757 49.7607 22.9797 50.1811 11.066 60.7386Z" fill="white"/>
<path fill-rule="evenodd" clip-rule="evenodd" d="M57.1864 50.4371C63.5189 55.7373 68.2035 59.107 78.1089 58.5365C84.6099 58.1618 95.7955 52.6118 97.4193 48.1189C95.6519 48.7928 94.6258 49.7157 92.9497 50.6375C84.7934 55.1258 75.3486 56.4895 66.4618 53.955C63.1636 53.0145 60.1791 51.29 57.1864 50.4371Z" fill="white"/>
<path fill-rule="evenodd" clip-rule="evenodd" d="M8.38877 43.4025C9.87475 42.3333 9.71038 41.019 10.0632 38.7073C10.4351 36.2679 11.2553 37.1627 12.3362 35.1726C14.4506 31.2828 11.9684 28.7008 16.2844 27.2159C14.8823 27.1823 14.0422 27.5822 12.6367 27.6558C10.3463 27.7751 11.6804 28.1741 10.2043 29.5872C6.55826 29.4036 3.66433 27.5999 0 28.711C2.41577 31.6361 5.96802 32.1795 8.11398 34.3906C7.92139 36.307 6.25775 40.5352 5.63098 41.885C6.8978 42.0108 4.79749 41.7955 6.22205 41.706C7.58932 41.6203 6.61472 42.5282 8.38877 43.4025Z" fill="white"/>
<path d="M29.6782 19.0371H24.8367V37.364C24.8367 39.5125 23.7351 40.7169 22.4019 40.7169C21.0678 40.7169 19.9952 39.5125 19.9952 37.364V33.9784H15.1828V37.364C15.1828 41.0096 17.3578 43.4508 20.6046 43.4508H24.2573C27.504 43.4508 29.6782 41.0096 29.6782 37.364V19.0371Z" fill="white"/>
<path d="M61.612 34.3151V28.8546H62.8373C64.1216 28.8546 64.8604 29.6851 64.8604 31.1262V32.0658C64.8604 33.5069 64.1216 34.3151 62.8373 34.3151H61.612ZM68.0897 43.423V39.3169C68.0897 36.871 66.6303 35.2323 64.8413 35.2323C66.6303 35.2323 68.0897 33.5945 68.0897 31.1262C68.0897 28.6803 66.6303 27.0425 64.452 27.0425H58.3636V43.423H61.612V36.1495H62.8373C64.1216 36.1495 64.8604 36.98 64.8604 38.4211V43.423H68.0897Z" fill="white"/>
<path d="M76.5125 43.4231C78.6909 43.4231 80.1495 41.7853 80.1495 39.3385V31.8403C80.1495 29.4158 78.6909 27.7771 76.5125 27.7771H74.0611C71.8827 27.7771 70.4241 29.4158 70.4241 31.8403V39.3385C70.4241 41.7844 71.8827 43.4231 74.0611 43.4231H76.5125ZM76.901 39.3385C76.901 40.8019 76.1813 41.6101 75.2872 41.6101C74.3923 41.6101 73.6725 40.8019 73.6725 39.3385V31.8617C73.6725 30.4197 74.3923 29.5901 75.2872 29.5901C76.1813 29.5901 76.901 30.4207 76.901 31.8617V39.3385Z" fill="white"/>
<path d="M82.5943 39.921C82.5943 41.9307 84.0537 43.5685 86.232 43.5685H87.068C89.2472 43.5685 90.7058 42.0398 90.7058 39.5715C90.7058 38.218 90.3945 37.2346 89.7527 36.4488L86.3101 32.1237C85.9988 31.7089 85.8427 31.185 85.8427 30.7264C85.8427 29.7215 86.5624 29.001 87.4573 29.001C88.4494 29.001 88.955 29.6125 89.0911 30.8355H90.7058C90.7058 28.8258 89.4995 27.188 87.068 27.188H86.232C84.0537 27.188 82.5943 28.7167 82.5943 31.185C82.5943 32.5609 82.9255 33.5219 83.5473 34.3077L86.9908 38.6328C87.3021 39.0253 87.4573 39.5501 87.4573 40.0301C87.4573 41.035 86.7185 41.7341 85.8236 41.7341C84.9287 41.7341 84.2089 40.9259 84.2089 39.921H82.5943Z" fill="white"/>
<path d="M37.0468 43.4231C39.2251 43.4231 40.6837 41.7853 40.6837 39.3385V31.8403C40.6837 29.4158 39.2251 27.7771 37.0468 27.7771H34.5953C32.417 27.7771 30.9584 29.4158 30.9584 31.8403V39.3385C30.9584 41.7844 32.417 43.4231 34.5953 43.4231H37.0468ZM37.4353 39.3385C37.4353 40.8019 36.7155 41.6101 35.8206 41.6101C34.9265 41.6101 34.2068 40.8019 34.2068 39.3385V31.8617C34.2068 30.4197 34.9265 29.5901 35.8206 29.5901C36.7155 29.5901 37.4353 30.4207 37.4353 31.8617V39.3385Z" fill="white"/>
<path d="M56.6592 25.0276C56.6592 21.382 54.5141 18.9407 51.2665 18.9407H42.1638V43.3544H47.0053V33.882H51.2383C54.4851 33.882 56.6592 31.4407 56.6592 27.7951V25.0276ZM51.8468 27.7951C51.8468 29.9427 50.7452 31.148 48.8317 31.148H47.0053V21.643H48.8317C50.7452 21.643 51.8468 22.8799 51.8468 25.0276V27.7951Z" fill="white"/>
<path d="M16.9361 66.79H18.9335C19.063 66.79 19.2033 66.8031 19.356 66.8292C19.5079 66.8553 19.6457 66.9131 19.7686 67.0016C19.8923 67.0911 19.9878 67.203 20.0558 67.3391C20.1239 67.4752 20.1579 67.629 20.1579 67.7995C20.1579 68.0764 20.07 68.301 19.894 68.4735C19.718 68.645 19.5096 68.7569 19.2697 68.8091L19.9363 69.6815L19.9645 69.7207C20.0069 69.7794 20.0467 69.8242 20.0824 69.8521C20.1181 69.881 20.1538 69.9015 20.1887 69.9136C20.2252 69.9258 20.275 69.9323 20.3381 69.9323H20.4776V70.4347H19.4382L18.3972 68.8668H18.1274V69.593C18.1274 69.7179 18.134 69.7971 18.1456 69.8307C18.1581 69.8652 18.178 69.8903 18.2054 69.9071C18.232 69.9239 18.2868 69.9323 18.3698 69.9323H18.5184V70.4347H16.9361V69.9323H17.0814C17.1577 69.9323 17.2117 69.923 17.2433 69.9043C17.2756 69.8866 17.2997 69.8586 17.3147 69.8223C17.323 69.8009 17.3263 69.7356 17.3263 69.6256V67.573C17.3263 67.4929 17.3213 67.436 17.3088 67.4015C17.2972 67.368 17.2781 67.3456 17.2516 67.3353C17.2142 67.3167 17.1719 67.3064 17.1229 67.3064L17.0573 67.3092H16.9361V66.79ZM18.1274 67.3894V68.3318H18.608C18.7973 68.3318 18.9384 68.3122 19.0322 68.2721C19.1261 68.233 19.1958 68.1771 19.2439 68.1053C19.2904 68.0317 19.3145 67.9422 19.3145 67.8378C19.3145 67.7427 19.2921 67.6607 19.2481 67.5917C19.2041 67.5236 19.141 67.4724 19.0605 67.4397C18.9791 67.4062 18.8455 67.3894 18.6612 67.3894H18.1274Z" fill="white"/>
<path d="M21.9519 67.7698C22.2175 67.7698 22.4483 67.8276 22.6459 67.9441C22.8435 68.0606 22.9946 68.2191 23.1008 68.4185C23.2071 68.6199 23.2602 68.8548 23.2602 69.1232C23.2602 69.5306 23.1432 69.8606 22.9074 70.1141C22.6708 70.3677 22.3553 70.4935 21.9618 70.4935C21.5592 70.4935 21.2404 70.3667 21.003 70.1113C20.773 69.868 20.6577 69.538 20.6577 69.1232C20.6577 68.852 20.71 68.6171 20.8154 68.4204C20.92 68.2247 21.0719 68.0662 21.2703 67.9478C21.4687 67.8294 21.6962 67.7698 21.9519 67.7698ZM21.9635 68.3421C21.8747 68.3421 21.7917 68.3719 21.7136 68.4307C21.6356 68.4894 21.5758 68.5761 21.5326 68.6907C21.4895 68.8054 21.4679 68.9508 21.4679 69.1279C21.4679 69.3097 21.4886 69.4607 21.531 69.58C21.5733 69.7002 21.6323 69.7888 21.7053 69.8466C21.7792 69.9034 21.8606 69.9323 21.9494 69.9323C22.0872 69.9323 22.2042 69.868 22.303 69.7385C22.401 69.6089 22.45 69.4085 22.45 69.1354C22.45 68.8725 22.4051 68.6739 22.3138 68.5416C22.2217 68.4083 22.1055 68.3421 21.9635 68.3421Z" fill="white"/>
<path d="M24.9081 67.7698C25.1738 67.7698 25.4045 67.8276 25.6021 67.9441C25.7997 68.0606 25.9508 68.2191 26.0571 68.4185C26.1633 68.6199 26.2164 68.8548 26.2164 69.1232C26.2164 69.5306 26.0994 69.8606 25.8628 70.1141C25.627 70.3677 25.3116 70.4935 24.9181 70.4935C24.5154 70.4935 24.1967 70.3667 23.9592 70.1113C23.7293 69.868 23.6139 69.538 23.6139 69.1232C23.6139 68.852 23.6662 68.6171 23.7716 68.4204C23.8762 68.2247 24.0281 68.0662 24.2265 67.9478C24.425 67.8294 24.6524 67.7698 24.9081 67.7698ZM24.9197 68.3421C24.8309 68.3421 24.7479 68.3719 24.6699 68.4307C24.5918 68.4894 24.5312 68.5761 24.4889 68.6907C24.4457 68.8054 24.4241 68.9508 24.4241 69.1279C24.4241 69.3097 24.4449 69.4607 24.4872 69.58C24.5296 69.7002 24.5877 69.7888 24.6616 69.8466C24.7354 69.9034 24.8168 69.9323 24.9056 69.9323C25.0434 69.9323 25.1605 69.868 25.2593 69.7385C25.3572 69.6089 25.4062 69.4085 25.4062 69.1354C25.4062 68.8725 25.3614 68.6739 25.2692 68.5416C25.1779 68.4083 25.0617 68.3421 24.9197 68.3421Z" fill="white"/>
<path d="M26.5701 67.828H26.9129C26.9146 67.6025 26.9403 67.4244 26.9901 67.2939C27.0399 67.1625 27.123 67.0441 27.2383 66.936C27.3546 66.8288 27.4982 66.7449 27.6709 66.6862C27.8427 66.6265 28.0444 66.5967 28.276 66.5967C28.5201 66.5967 28.726 66.6293 28.8962 66.6927C29.0664 66.7561 29.1867 66.8325 29.2573 66.922C29.3279 67.0115 29.3627 67.1019 29.3627 67.1923C29.3627 67.2557 29.3486 67.3163 29.3187 67.3722C29.2897 67.4272 29.2498 67.4692 29.2 67.4971C29.1502 67.5251 29.0913 67.5391 29.0207 67.5391C28.9593 67.5391 28.9012 67.526 28.8489 67.5018C28.7966 67.4757 28.7243 67.4188 28.6322 67.3275C28.5608 67.2576 28.4935 67.21 28.4305 67.183C28.3682 67.156 28.2985 67.1429 28.2204 67.1429C28.0992 67.1429 27.988 67.1746 27.8884 67.238C27.7879 67.3023 27.7248 67.3769 27.6974 67.4608C27.6709 67.5447 27.6567 67.6668 27.6567 67.828H28.9286C29.0431 67.828 29.122 67.8224 29.1643 67.8122C29.1901 67.8066 29.2183 67.7907 29.2473 67.7637H29.4682V69.6224C29.4682 69.7557 29.4706 69.8303 29.4756 69.848C29.4839 69.875 29.5005 69.8965 29.5238 69.9114C29.547 69.9244 29.5985 69.9319 29.6807 69.9319H29.8118V70.4343H28.3815V69.9319H28.4836C28.5774 69.9319 28.6363 69.9263 28.6596 69.9142C28.6828 69.903 28.7003 69.8834 28.7102 69.8554C28.7202 69.8331 28.7243 69.7669 28.7243 69.6597V68.3789H27.6567V69.6224C27.6567 69.7436 27.6617 69.8182 27.6717 69.848C27.6817 69.8769 27.6983 69.8983 27.7215 69.9114C27.7439 69.9254 27.7995 69.9319 27.8884 69.9319H28.0004V70.4343H26.5701V69.9319H26.6655C26.7552 69.9319 26.8133 69.9235 26.8407 69.9086C26.8698 69.8918 26.888 69.8704 26.898 69.8424C26.9088 69.8144 26.9129 69.7361 26.9129 69.6075V68.3789H26.5701V67.828Z" fill="white"/>
<path d="M31.126 67.7698V68.1165C31.3012 67.9823 31.4523 67.891 31.5768 67.8425C31.7021 67.794 31.83 67.7698 31.9612 67.7698C32.1122 67.7698 32.2459 67.8052 32.3613 67.877C32.4767 67.9478 32.5622 68.0373 32.6145 68.1445C32.6676 68.2508 32.6942 68.4027 32.6942 68.5994V69.6835C32.6942 69.7767 32.6992 69.8354 32.7116 69.8615C32.7224 69.8876 32.7407 69.9072 32.7664 69.9184C32.7847 69.9277 32.8403 69.9323 32.9333 69.9323H33.047V70.4348H31.6831V69.9323C31.786 69.9305 31.8441 69.9277 31.8557 69.924C31.8947 69.9118 31.9196 69.8913 31.9321 69.8643C31.9437 69.8363 31.9504 69.7767 31.9504 69.6844V68.7308C31.9504 68.6078 31.9387 68.5285 31.9155 68.4922C31.8781 68.4316 31.8192 68.4008 31.7378 68.4008C31.6714 68.4008 31.6 68.4167 31.5237 68.4502C31.4473 68.4829 31.3452 68.5509 31.2165 68.6534V69.6844C31.2165 69.7972 31.2273 69.8671 31.2497 69.8923C31.2713 69.9184 31.3244 69.9323 31.4074 69.9323H31.483V70.4348H30.1298V69.9323H30.1971C30.3033 69.9323 30.3689 69.9267 30.3946 69.9165C30.4204 69.9062 30.4403 69.8876 30.4528 69.8615C30.466 69.8354 30.4727 69.7851 30.4727 69.7077V68.4978H30.1298V67.9944C30.4071 67.9553 30.6678 67.8798 30.9102 67.7698H31.126Z" fill="white"/>
<path d="M35.134 67.985C35.2153 67.8536 35.2984 67.7585 35.3797 67.7035C35.4627 67.6476 35.5491 67.6196 35.6404 67.6196C35.7317 67.6196 35.8039 67.6495 35.8571 67.71C35.9102 67.7697 35.9359 67.8461 35.9359 67.9403C35.9359 68.0251 35.911 68.0969 35.8604 68.1528C35.8106 68.2097 35.7483 68.2376 35.6736 68.2376L35.598 68.2348L35.5192 68.232C35.4768 68.232 35.4353 68.2507 35.3938 68.2852C35.4785 68.4446 35.5217 68.5974 35.5217 68.7429C35.5217 68.8967 35.4793 69.0477 35.3947 69.1931C35.3091 69.3385 35.1929 69.4522 35.0427 69.5324C34.8924 69.6135 34.7114 69.6536 34.5022 69.6536C34.4416 69.6536 34.3802 69.6498 34.3196 69.6414C34.2582 69.634 34.1959 69.6219 34.1336 69.606C34.0921 69.6359 34.0606 69.6647 34.0382 69.6927C34.0166 69.7207 34.0058 69.7458 34.0058 69.7701C34.0058 69.8241 34.0556 69.8586 34.1552 69.8735L35.1207 70.0274C35.4079 70.073 35.6146 70.1588 35.7408 70.2846C35.8678 70.4123 35.9309 70.5652 35.9309 70.7423C35.9309 70.898 35.8836 71.0425 35.7873 71.1758C35.691 71.3072 35.5341 71.4162 35.3175 71.5011C35.0991 71.5859 34.8243 71.6288 34.4931 71.6288C34.2017 71.6288 33.961 71.5971 33.77 71.5337C33.5808 71.4703 33.4454 71.3901 33.3657 71.2951C33.2877 71.1991 33.2479 71.1068 33.2479 71.0201C33.2479 70.9213 33.2769 70.8327 33.3359 70.7535C33.3948 70.6752 33.516 70.5848 33.6995 70.4822C33.5849 70.4347 33.4986 70.3778 33.4405 70.3098C33.3624 70.2194 33.3242 70.1262 33.3242 70.0302C33.3242 69.9258 33.3608 69.8232 33.433 69.7216C33.5052 69.62 33.6131 69.5203 33.7576 69.4215C33.6771 69.3655 33.6148 69.3049 33.5683 69.2397C33.5235 69.1744 33.4861 69.0943 33.4571 69.0001C33.4288 68.906 33.4147 68.81 33.4147 68.7102C33.4147 68.4492 33.5102 68.2274 33.6995 68.0438C33.8896 67.8611 34.1395 67.7697 34.4499 67.7697C34.5877 67.7697 34.7131 67.7874 34.8277 67.8238C34.9414 67.8592 35.0443 67.9133 35.134 67.985ZM34.4723 68.2721C34.3736 68.2721 34.2905 68.3131 34.2266 68.3961C34.1619 68.4772 34.1295 68.5872 34.1295 68.7279C34.1295 68.8557 34.1602 68.9582 34.2233 69.0356C34.2856 69.112 34.3653 69.1502 34.4632 69.1502C34.5595 69.1502 34.64 69.1111 34.7048 69.0318C34.7687 68.9526 34.8019 68.8501 34.8019 68.7252C34.8019 68.5844 34.7704 68.4753 34.7098 68.3942C34.6483 68.3131 34.5686 68.2721 34.4723 68.2721ZM34.1345 70.6071C34.0523 70.678 34 70.7321 33.9767 70.7693C33.9543 70.8066 33.9435 70.8476 33.9435 70.8924C33.9435 70.9772 34.0058 71.0443 34.1303 71.0919C34.254 71.1385 34.4142 71.1627 34.6077 71.1627C34.7496 71.1627 34.875 71.1487 34.9837 71.1208C35.0925 71.0937 35.1647 71.0592 35.2004 71.0201C35.2236 70.994 35.2353 70.9586 35.2353 70.9129C35.2353 70.8635 35.212 70.8215 35.1655 70.7871C35.1182 70.7535 35.0061 70.7246 34.8268 70.7004L34.1345 70.6071Z" fill="white"/>
<path d="M39.9058 68.0371H41.0456V68.5405H40.9045C40.8256 68.5405 40.77 68.5489 40.7384 68.5657C40.7077 68.5843 40.682 68.6132 40.6621 68.6542C40.6496 68.6775 40.6239 68.7735 40.5849 68.946C40.5591 69.055 40.5176 69.1771 40.462 69.3114C40.4055 69.4456 40.3441 69.5677 40.2752 69.6768C40.3441 69.7924 40.4006 69.8688 40.4471 69.9042C40.4927 69.9406 40.5384 69.9583 40.5849 69.9583C40.6397 69.9583 40.6853 69.9378 40.7227 69.8977C40.76 69.8567 40.7783 69.8054 40.7783 69.7411C40.7783 69.6786 40.755 69.6031 40.7086 69.5164C40.6629 69.4363 40.6413 69.3673 40.6413 69.3086C40.6413 69.2209 40.672 69.1426 40.7335 69.0765C40.7966 69.0103 40.8713 68.9777 40.9576 68.9777C41.0713 68.9777 41.1676 69.028 41.2448 69.1287C41.322 69.2303 41.3602 69.3729 41.3602 69.5584C41.3602 69.8287 41.2739 70.0524 41.1021 70.2286C40.931 70.4057 40.7036 70.4933 40.4213 70.4933C40.2802 70.4933 40.1631 70.4737 40.0693 70.4337C39.9764 70.3936 39.8759 70.3172 39.7672 70.2034C39.5189 70.3973 39.23 70.4933 38.9013 70.4933C38.5501 70.4933 38.2654 70.3805 38.0462 70.155C37.8279 69.9294 37.7183 69.6535 37.7183 69.3272C37.7183 69.0541 37.7889 68.8164 37.9292 68.616C38.0396 68.4557 38.2255 68.2944 38.4846 68.1331C38.3758 68.0548 38.2936 67.9635 38.2388 67.86C38.184 67.7566 38.1566 67.6419 38.1566 67.5142C38.1566 67.297 38.2322 67.1115 38.3841 66.9596C38.5344 66.8067 38.7328 66.7312 38.9768 66.7312C39.2242 66.7312 39.4185 66.8011 39.558 66.9419C39.6983 67.0817 39.768 67.2569 39.768 67.4704C39.768 67.6484 39.7281 67.7985 39.6493 67.9243C39.5878 68.0222 39.494 68.107 39.3679 68.1779C39.455 68.2217 39.5223 68.2674 39.5721 68.3158C39.6401 68.3839 39.709 68.4771 39.7788 68.5955C39.8236 68.6701 39.9108 68.8565 40.0411 69.1538C40.1308 68.9255 40.1764 68.7614 40.1764 68.6626C40.1764 68.6346 40.1681 68.6095 40.1532 68.588C40.1374 68.5666 40.1167 68.5535 40.0893 68.5479C40.071 68.5424 40.0104 68.5405 39.9058 68.5405V68.0371ZM38.9719 67.2131C38.9005 67.2131 38.8415 67.2448 38.7959 67.3082C38.751 67.3725 38.7286 67.4648 38.7286 67.5878C38.7286 67.695 38.7519 67.7808 38.7984 67.8451C38.8457 67.9085 38.9013 67.9402 38.9644 67.9402C39.0051 67.9402 39.0457 67.9262 39.0864 67.8982C39.1263 67.8684 39.1553 67.8311 39.1728 67.7836C39.1977 67.7221 39.2101 67.6522 39.2101 67.5739C39.2101 67.4517 39.1869 67.3604 39.1404 67.3017C39.0931 67.242 39.0366 67.2131 38.9719 67.2131ZM38.9644 68.4491C38.8133 68.5358 38.6996 68.644 38.6215 68.7726C38.5435 68.9022 38.5045 69.0401 38.5045 69.1883C38.5045 69.3794 38.5626 69.5407 38.6788 69.674C38.7942 69.8063 38.9337 69.8725 39.0972 69.8725C39.2226 69.8725 39.3496 69.8418 39.4766 69.7784C39.4409 69.7122 39.4118 69.6404 39.3886 69.5621L39.2632 69.0746C39.2176 68.904 39.1811 68.7856 39.1537 68.7176C39.1254 68.6495 39.098 68.5983 39.0715 68.5619C39.0457 68.5246 39.0101 68.4874 38.9644 68.4491Z" fill="white"/>
<path d="M45.6629 66.7899H45.9933L46.3121 68.0987L45.8788 68.2394C45.7343 67.9281 45.5982 67.7081 45.4712 67.5776C45.2943 67.3986 45.1026 67.3091 44.8959 67.3091C44.7456 67.3091 44.6053 67.3567 44.4741 67.4499C44.343 67.544 44.2392 67.682 44.162 67.8638C44.0848 68.0464 44.0466 68.2599 44.0466 68.5051C44.0466 68.8779 44.1346 69.1995 44.3114 69.4689C44.4866 69.7383 44.7182 69.8725 45.0029 69.8725C45.1856 69.8725 45.3591 69.8147 45.5268 69.6982C45.7368 69.5547 45.9178 69.3608 46.0697 69.1175L46.43 69.4176C46.1959 69.7765 45.9817 70.0263 45.7883 70.1671C45.4886 70.3852 45.1557 70.4933 44.7879 70.4933C44.4824 70.4933 44.206 70.4113 43.9586 70.2472C43.7112 70.0832 43.5145 69.8529 43.3667 69.5584C43.2198 69.262 43.1459 68.9394 43.1459 68.5899C43.1459 68.2422 43.2173 67.9253 43.3609 67.64C43.5037 67.3539 43.6996 67.1302 43.9478 66.9708C44.1944 66.8114 44.47 66.7312 44.7738 66.7312C45.0826 66.7312 45.3524 66.803 45.5857 66.9465L45.6629 66.7899Z" fill="white"/>
<path d="M47.9758 67.7698C48.2406 67.7698 48.4722 67.8276 48.669 67.9441C48.8666 68.0606 49.0176 68.2191 49.1239 68.4185C49.231 68.6199 49.2841 68.8548 49.2841 69.1232C49.2841 69.5306 49.1662 69.8606 48.9305 70.1141C48.6947 70.3677 48.3793 70.4935 47.9849 70.4935C47.5831 70.4935 47.2635 70.3667 47.0261 70.1113C46.7961 69.868 46.6816 69.538 46.6816 69.1232C46.6816 68.852 46.7339 68.6171 46.8385 68.4204C46.9431 68.2247 47.095 68.0662 47.2934 67.9478C47.4926 67.8294 47.7193 67.7698 47.9758 67.7698ZM47.9874 68.3421C47.8986 68.3421 47.8147 68.3719 47.7367 68.4307C47.6595 68.4894 47.5989 68.5761 47.5557 68.6907C47.5134 68.8054 47.4918 68.9508 47.4918 69.1279C47.4918 69.3097 47.5126 69.4607 47.5541 69.58C47.5964 69.7002 47.6554 69.7888 47.7292 69.8466C47.8031 69.9034 47.8845 69.9323 47.9733 69.9323C48.1103 69.9323 48.2282 69.868 48.327 69.7385C48.4241 69.6089 48.4739 69.4085 48.4739 69.1354C48.4739 68.8725 48.4282 68.6739 48.3369 68.5416C48.2456 68.4083 48.1285 68.3421 47.9874 68.3421Z" fill="white"/>
<path d="M50.6671 67.7698V68.1165C50.8423 67.9823 50.9933 67.891 51.1179 67.8425C51.2441 67.794 51.3719 67.7698 51.5031 67.7698C51.6533 67.7698 51.787 67.8052 51.9024 67.877C52.0186 67.9478 52.1033 68.0373 52.1556 68.1445C52.2087 68.2508 52.2353 68.4027 52.2353 68.5994V69.6835C52.2353 69.7767 52.2411 69.8354 52.2527 69.8615C52.2635 69.8876 52.2818 69.9072 52.3075 69.9184C52.3258 69.9277 52.3814 69.9323 52.4743 69.9323H52.5881V70.4348H51.225V69.9323C51.3271 69.9305 51.3852 69.9277 51.3968 69.924C51.4358 69.9118 51.4607 69.8913 51.4732 69.8643C51.4856 69.8363 51.4914 69.7767 51.4914 69.6844V68.7308C51.4914 68.6078 51.4798 68.5285 51.4566 68.4922C51.4192 68.4316 51.3603 68.4008 51.2797 68.4008C51.2125 68.4008 51.1411 68.4167 51.0647 68.4502C50.9884 68.4829 50.8862 68.5509 50.7576 68.6534V69.6844C50.7576 69.7972 50.7684 69.8671 50.7908 69.8923C50.8124 69.9184 50.8655 69.9323 50.9493 69.9323H51.0241V70.4348H49.6709V69.9323H49.7381C49.8444 69.9323 49.9108 69.9267 49.9357 69.9165C49.9615 69.9062 49.9814 69.8876 49.9938 69.8615C50.0071 69.8354 50.0138 69.7851 50.0138 69.7077V68.4978H49.6709V67.9944C49.949 67.9553 50.2097 67.8798 50.4521 67.7698H50.6671Z" fill="white"/>
<path d="M54.456 67.8285H54.7598L54.9483 68.5556L54.51 68.7541C54.4261 68.604 54.3215 68.4866 54.1953 68.4008C54.0692 68.3151 53.943 68.2722 53.8193 68.2722C53.7379 68.2722 53.6765 68.288 53.6358 68.3188C53.5951 68.3496 53.5752 68.3868 53.5752 68.4297C53.5752 68.4651 53.5902 68.4996 53.6184 68.5295C53.6466 68.5612 53.7064 68.5938 53.796 68.6273L54.4353 68.8837C54.549 68.9284 54.6569 68.9853 54.7607 69.0533C54.8653 69.1214 54.9425 69.2043 54.9948 69.3022C55.0463 69.4001 55.072 69.5157 55.072 69.6471C55.072 69.8829 54.9923 70.0768 54.8304 70.2278C54.642 70.4059 54.4054 70.4935 54.1239 70.4935C53.8824 70.4935 53.6715 70.4264 53.4922 70.2912L53.4266 70.4348H53.1178L52.8322 69.5828L53.2705 69.3749C53.3801 69.5669 53.5163 69.717 53.6765 69.827C53.8367 69.9361 53.9845 69.9911 54.1198 69.9911C54.2028 69.9911 54.2734 69.9696 54.3298 69.9258C54.3738 69.8904 54.3954 69.8494 54.3954 69.8028C54.3954 69.7627 54.3788 69.7254 54.3448 69.6881C54.3116 69.6518 54.2368 69.6108 54.1215 69.5651L53.6192 69.3693C53.3419 69.2603 53.1535 69.1428 53.0539 69.0198C52.9534 68.8939 52.9036 68.7476 52.9036 68.577C52.9036 68.358 52.9816 68.1743 53.1377 68.0242C53.3162 67.8546 53.537 67.7698 53.7977 67.7698C54.031 67.7698 54.2294 67.8276 54.3954 67.9441L54.456 67.8285Z" fill="white"/>
<path d="M56.4069 66.9343V67.8282H57.1557V68.3847H56.4069V69.2936C56.4069 69.4986 56.4168 69.631 56.4368 69.6888C56.4559 69.7475 56.4915 69.7941 56.5447 69.8286C56.6136 69.8762 56.6941 69.8995 56.7838 69.8995C56.9432 69.8995 57.1025 69.8417 57.2603 69.7252V70.2835C57.125 70.3553 57.0029 70.4056 56.8942 70.4345C56.7846 70.4634 56.6659 70.4774 56.5389 70.4774C56.3944 70.4774 56.2666 70.4569 56.1562 70.4159C56.0449 70.3749 55.9503 70.3171 55.8714 70.2416C55.7934 70.1651 55.7386 70.085 55.7087 69.9992C55.6788 69.9135 55.663 69.7904 55.663 69.6282V68.3847H55.3202V67.8814C55.4439 67.8366 55.5501 67.7723 55.6381 67.6884C55.7253 67.6036 55.7959 67.5029 55.8498 67.3846C55.903 67.2662 55.9395 67.1161 55.9594 66.9343H56.4069Z" fill="white"/>
<path d="M58.5811 67.7698V68.1492C58.7056 68.0028 58.8136 67.9021 58.9049 67.8499C58.9954 67.7959 59.0834 67.7698 59.168 67.7698C59.2444 67.7698 59.3125 67.7893 59.3722 67.8285C59.432 67.8676 59.4802 67.9236 59.515 67.9972C59.5499 68.0699 59.5673 68.1482 59.5673 68.2321C59.5673 68.3421 59.535 68.4409 59.4702 68.5304C59.4063 68.619 59.3158 68.6637 59.1987 68.6637C59.168 68.6637 59.1398 68.6609 59.1157 68.6553C59.0917 68.6497 59.041 68.6329 58.963 68.604C58.9223 68.5901 58.8891 68.5835 58.8625 68.5835C58.8227 68.5835 58.7554 68.6115 58.6616 68.6684V69.6872C58.6616 69.7739 58.6674 69.8298 58.6791 69.8559C58.6907 69.8829 58.7098 69.9016 58.7347 69.9137C58.7613 69.9258 58.8177 69.9323 58.904 69.9323H59.0053V70.4348H57.575V69.9323H57.6945C57.78 69.9323 57.8331 69.9267 57.8539 69.9156C57.8755 69.9062 57.8912 69.8876 57.9012 69.8615C57.9128 69.8354 57.9178 69.7776 57.9178 69.6872V68.4922H57.575V67.9898C57.8273 67.972 58.0897 67.8984 58.3619 67.7698H58.5811Z" fill="white"/>
<path d="M59.691 67.8283L60.7785 67.8069V69.4969C60.7785 69.618 60.7843 69.6973 60.7984 69.7374C60.8117 69.7774 60.8358 69.8091 60.8715 69.8352C60.9063 69.8604 60.9503 69.8725 61.0035 69.8725C61.0815 69.8725 61.1645 69.852 61.2525 69.8101C61.2865 69.7933 61.3779 69.7318 61.5265 69.6264V68.6076C61.5265 68.52 61.5198 68.4585 61.5074 68.4249C61.4957 68.3923 61.4775 68.368 61.4542 68.3541C61.431 68.3382 61.3862 68.3317 61.3181 68.3317H61.1836V67.8283L62.2703 67.8069V69.6712C62.2703 69.7681 62.2753 69.8287 62.2852 69.8548C62.2952 69.88 62.311 69.8977 62.3325 69.9098C62.355 69.921 62.4081 69.9266 62.4919 69.9266H62.6131V70.4346L61.5979 70.4672V70.1568C61.4617 70.2687 61.3239 70.3526 61.1861 70.4094C61.0475 70.4654 60.9088 70.4933 60.7685 70.4933C60.6565 70.4933 60.5543 70.4728 60.4597 70.4318C60.3659 70.3908 60.287 70.3367 60.2239 70.2677C60.1592 70.1997 60.1127 70.1186 60.0812 70.0272C60.0504 69.934 60.0347 69.8166 60.0347 69.6721V68.5973C60.0347 68.4985 60.0297 68.4361 60.0197 68.41C60.0089 68.383 59.9923 68.3643 59.9691 68.3513C59.9458 68.3373 59.896 68.3317 59.8197 68.3317H59.691V67.8283Z" fill="white"/>
<path d="M65.0132 69.4486L65.3552 69.7841C65.1726 70.0321 64.9824 70.212 64.7857 70.3248C64.5881 70.4376 64.3781 70.4935 64.1531 70.4935C63.7928 70.4935 63.4931 70.363 63.2524 70.1001C63.0116 69.8382 62.8904 69.5185 62.8904 69.1428C62.8904 68.8874 62.9469 68.6534 63.059 68.4409C63.1719 68.2302 63.3263 68.0653 63.5222 67.9469C63.7189 67.8285 63.9497 67.7698 64.217 67.7698C64.5358 67.7698 64.7965 67.8527 64.999 68.0196C65.2016 68.1855 65.3029 68.3607 65.3029 68.5453C65.3029 68.6236 65.2871 68.6935 65.2547 68.755C65.2232 68.8175 65.175 68.8678 65.1095 68.9061C65.0447 68.9443 64.9758 68.9629 64.9019 68.9629C64.8438 68.9629 64.7898 68.9499 64.7442 68.9238C64.6977 68.8977 64.6587 68.865 64.6271 68.825C64.6139 68.8082 64.5873 68.7541 64.5466 68.6646C64.4951 68.5518 64.4561 68.4773 64.4271 68.44C64.3997 68.4036 64.3665 68.3757 64.3274 68.3561C64.2893 68.3356 64.2444 68.3263 64.1946 68.3263C64.1141 68.3263 64.0369 68.3552 63.963 68.4129C63.8891 68.4707 63.8294 68.5593 63.7812 68.6767C63.7347 68.7942 63.7106 68.9256 63.7106 69.071C63.7106 69.2304 63.738 69.3731 63.7937 69.5008C63.8501 69.6285 63.9248 69.7254 64.0186 69.7897C64.1124 69.8559 64.2162 69.8895 64.3299 69.8895C64.4379 69.8895 64.5474 69.8559 64.6579 69.7907C64.7674 69.7254 64.8861 69.6108 65.0132 69.4486Z" fill="white"/>
<path d="M66.7042 66.9343V67.8282H67.4521V68.3847H66.7042V69.2936C66.7042 69.4986 66.7133 69.631 66.7332 69.6888C66.7523 69.7475 66.788 69.7941 66.842 69.8286C66.9109 69.8762 66.9906 69.8995 67.0811 69.8995C67.2405 69.8995 67.399 69.8417 67.5576 69.7252V70.2835C67.4223 70.3553 67.3002 70.4056 67.1915 70.4345C67.0819 70.4634 66.9632 70.4774 66.8362 70.4774C66.6917 70.4774 66.5639 70.4569 66.4526 70.4159C66.3422 70.3749 66.2476 70.3171 66.1687 70.2416C66.0907 70.1651 66.0359 70.085 66.006 69.9992C65.9753 69.9135 65.9603 69.7904 65.9603 69.6282V68.3847H65.6175V67.8814C65.7412 67.8366 65.8466 67.7723 65.9354 67.6884C66.0226 67.6036 66.0932 67.5029 66.1471 67.3846C66.2003 67.2662 66.2368 67.1161 66.2567 66.9343H66.7042Z" fill="white"/>
<path d="M68.5654 66.6028C68.6841 66.6028 68.7838 66.6494 68.8676 66.7426C68.9506 66.8358 68.9921 66.9477 68.9921 67.08C68.9921 67.2143 68.9506 67.328 68.8676 67.4212C68.7838 67.5144 68.6841 67.561 68.5654 67.561C68.4475 67.561 68.3471 67.5144 68.2641 67.4212C68.1802 67.328 68.1387 67.2152 68.1387 67.0828C68.1387 66.9523 68.1819 66.8405 68.2666 66.7445C68.3529 66.6503 68.4517 66.6028 68.5654 66.6028ZM68.9448 67.7698V69.6975C68.9448 69.7888 68.949 69.8466 68.9589 69.8671C68.9672 69.8877 68.9847 69.9035 69.0087 69.9147C69.0328 69.9268 69.0868 69.9324 69.1714 69.9324H69.2976V70.4348H67.8573V69.9324H67.981C68.0607 69.9324 68.113 69.9277 68.1354 69.9175C68.157 69.9082 68.1736 69.8914 68.1852 69.8699C68.1952 69.8476 68.201 69.8019 68.201 69.7338V68.4922H67.8573V68.0001C67.9802 67.9926 68.098 67.9786 68.2101 67.9553C68.3222 67.933 68.4235 67.905 68.5115 67.8742C68.5687 67.8537 68.6393 67.8183 68.724 67.7698H68.9448Z" fill="white"/>
<path d="M70.8574 67.7698C71.1231 67.7698 71.3539 67.8276 71.5515 67.9441C71.749 68.0606 71.9001 68.2191 72.0064 68.4185C72.1127 68.6199 72.1658 68.8548 72.1658 69.1232C72.1658 69.5306 72.0487 69.8606 71.813 70.1141C71.5764 70.3677 71.2609 70.4935 70.8674 70.4935C70.4648 70.4935 70.146 70.3667 69.9086 70.1113C69.6786 69.868 69.5632 69.538 69.5632 69.1232C69.5632 68.852 69.6155 68.6171 69.721 68.4204C69.8256 68.2247 69.9775 68.0662 70.1759 67.9478C70.3743 67.8294 70.6018 67.7698 70.8574 67.7698ZM70.8691 68.3421C70.7802 68.3421 70.6972 68.3719 70.6192 68.4307C70.5412 68.4894 70.4814 68.5761 70.4382 68.6907C70.3951 68.8054 70.3735 68.9508 70.3735 69.1279C70.3735 69.3097 70.3942 69.4607 70.4366 69.58C70.4789 69.7002 70.5378 69.7888 70.6109 69.8466C70.6848 69.9034 70.7661 69.9323 70.855 69.9323C70.9928 69.9323 71.1098 69.868 71.2086 69.7385C71.3066 69.6089 71.3555 69.4085 71.3555 69.1354C71.3555 68.8725 71.3107 68.6739 71.2194 68.5416C71.1281 68.4083 71.011 68.3421 70.8691 68.3421Z" fill="white"/>
<path d="M73.5489 67.7698V68.1165C73.7249 67.9823 73.8759 67.891 74.0005 67.8425C74.1258 67.794 74.2537 67.7698 74.3848 67.7698C74.5359 67.7698 74.6696 67.8052 74.785 67.877C74.9004 67.9478 74.9859 68.0373 75.0382 68.1445C75.0913 68.2508 75.1179 68.4027 75.1179 68.5994V69.6835C75.1179 69.7767 75.1228 69.8354 75.1353 69.8615C75.1461 69.8876 75.1644 69.9072 75.1901 69.9184C75.2084 69.9277 75.264 69.9323 75.357 69.9323H75.4699V70.4348H74.1067V69.9323C74.2097 69.9305 74.2678 69.9277 74.2794 69.924C74.3184 69.9118 74.3425 69.8913 74.3558 69.8643C74.3674 69.8363 74.374 69.7767 74.374 69.6844V68.7308C74.374 68.6078 74.3616 68.5285 74.3392 68.4922C74.3018 68.4316 74.2429 68.4008 74.1615 68.4008C74.0951 68.4008 74.0237 68.4167 73.9473 68.4502C73.871 68.4829 73.7689 68.5509 73.6402 68.6534V69.6844C73.6402 69.7972 73.651 69.8671 73.6734 69.8923C73.695 69.9184 73.7481 69.9323 73.8311 69.9323H73.9067V70.4348H72.5527V69.9323H72.6207C72.727 69.9323 72.7926 69.9267 72.8183 69.9165C72.8441 69.9062 72.864 69.8876 72.8764 69.8615C72.8897 69.8354 72.8964 69.7851 72.8964 69.7077V68.4978H72.5527V67.9944C72.8308 67.9553 73.0914 67.8798 73.3339 67.7698H73.5489Z" fill="white"/>
<path d="M79.2886 68.492H80.8759V68.9954H80.7572C80.6799 68.9954 80.6268 69.0028 80.5986 69.0187C80.5695 69.0345 80.5488 69.0597 80.5338 69.0932C80.5206 69.1268 80.5131 69.1921 80.5131 69.289V70.4346H80.0366L79.9137 70.1727C79.7684 70.2799 79.6165 70.36 79.4596 70.4132C79.3035 70.4672 79.1408 70.4933 78.9723 70.4933C78.6759 70.4933 78.4061 70.4122 78.1629 70.251C77.9197 70.0897 77.7262 69.8641 77.5851 69.5733C77.4432 69.2834 77.3718 68.9581 77.3718 68.5983C77.3718 68.2413 77.4423 67.9225 77.5826 67.641C77.7221 67.3595 77.9188 67.1376 78.1704 66.9745C78.4227 66.8123 78.6959 66.7312 78.9906 66.7312C79.1325 66.7312 79.2753 66.7517 79.4173 66.7918C79.5584 66.8319 79.6804 66.885 79.7809 66.9521L79.8664 66.7899H80.1926L80.4857 67.998L80.0573 68.1546C79.9112 67.8908 79.7967 67.7109 79.712 67.6139C79.6273 67.5189 79.531 67.4434 79.4214 67.3902C79.311 67.3362 79.2048 67.3091 79.101 67.3091C78.9541 67.3091 78.8162 67.3576 78.6884 67.4527C78.5606 67.5478 78.4593 67.6885 78.3854 67.8712C78.3107 68.0548 78.2733 68.2767 78.2733 68.5377C78.2733 68.8248 78.314 69.0737 78.3945 69.2843C78.4767 69.495 78.583 69.6507 78.7141 69.7523C78.8461 69.8539 78.9906 69.9051 79.1483 69.9051C79.2595 69.9051 79.3658 69.88 79.4654 69.8287C79.5659 69.7784 79.634 69.7215 79.6713 69.6591C79.7087 69.5957 79.7269 69.5108 79.7269 69.4046V69.2704C79.7269 69.1781 79.7211 69.1193 79.7103 69.0951C79.6937 69.0597 79.6705 69.0345 79.6423 69.0187C79.6132 69.0028 79.5567 68.9954 79.4729 68.9954H79.2886V68.492Z" fill="white"/>
<path d="M82.1286 67.7698V68.1492C82.2531 68.0028 82.3618 67.9021 82.4531 67.8499C82.5436 67.7959 82.6316 67.7698 82.7155 67.7698C82.7919 67.7698 82.8599 67.7893 82.9197 67.8285C82.9803 67.8676 83.0276 67.9236 83.0633 67.9972C83.0982 68.0699 83.1156 68.1482 83.1156 68.2321C83.1156 68.3421 83.0824 68.4409 83.0185 68.5304C82.9537 68.619 82.8633 68.6637 82.747 68.6637C82.7155 68.6637 82.6881 68.6609 82.6632 68.6553C82.6391 68.6497 82.5885 68.6329 82.5104 68.604C82.4706 68.5901 82.4366 68.5835 82.4108 68.5835C82.3701 68.5835 82.3037 68.6115 82.2099 68.6684V69.6872C82.2099 69.7739 82.2149 69.8298 82.2273 69.8559C82.2381 69.8829 82.2572 69.9016 82.283 69.9137C82.3087 69.9258 82.3652 69.9323 82.4523 69.9323H82.5528V70.4348H81.1224V69.9323H81.2419C81.3275 69.9323 81.3806 69.9267 81.4013 69.9156C81.4229 69.9062 81.4387 69.8876 81.4495 69.8615C81.4603 69.8354 81.4661 69.7776 81.4661 69.6872V68.4922H81.1224V67.9898C81.3756 67.972 81.6379 67.8984 81.9102 67.7698H82.1286Z" fill="white"/>
<path d="M84.5858 67.7698C84.8515 67.7698 85.0823 67.8276 85.2799 67.9441C85.4774 68.0606 85.6285 68.2191 85.7348 68.4185C85.841 68.6199 85.8942 68.8548 85.8942 69.1232C85.8942 69.5306 85.7771 69.8606 85.5405 70.1141C85.3048 70.3677 84.9893 70.4935 84.5958 70.4935C84.1932 70.4935 83.8744 70.3667 83.637 70.1113C83.407 69.868 83.2916 69.538 83.2916 69.1232C83.2916 68.852 83.3439 68.6171 83.4494 68.4204C83.554 68.2247 83.7059 68.0662 83.9043 67.9478C84.1027 67.8294 84.3302 67.7698 84.5858 67.7698ZM84.5975 68.3421C84.5086 68.3421 84.4256 68.3719 84.3476 68.4307C84.2696 68.4894 84.209 68.5761 84.1666 68.6907C84.1234 68.8054 84.1019 68.9508 84.1019 69.1279C84.1019 69.3097 84.1226 69.4607 84.165 69.58C84.2073 69.7002 84.2654 69.7888 84.3393 69.8466C84.4132 69.9034 84.4945 69.9323 84.5834 69.9323C84.7212 69.9323 84.8382 69.868 84.937 69.7385C85.035 69.6089 85.0839 69.4085 85.0839 69.1354C85.0839 68.8725 85.0391 68.6739 84.947 68.5416C84.8556 68.4083 84.7394 68.3421 84.5975 68.3421Z" fill="white"/>
<path d="M86.1955 67.8283L87.2822 67.8069V69.4969C87.2822 69.618 87.2888 69.6973 87.3021 69.7374C87.3154 69.7774 87.3395 69.8091 87.3751 69.8352C87.41 69.8604 87.4548 69.8725 87.508 69.8725C87.586 69.8725 87.6682 69.852 87.7562 69.8101C87.7911 69.7933 87.8824 69.7318 88.031 69.6264V68.6076C88.031 68.52 88.0243 68.4585 88.0119 68.4249C87.9994 68.3923 87.9812 68.368 87.9588 68.3541C87.9355 68.3382 87.8899 68.3317 87.8226 68.3317H87.6873V67.8283L88.774 67.8069V69.6712C88.774 69.7681 88.779 69.8287 88.7897 69.8548C88.7989 69.88 88.8146 69.8977 88.8371 69.9098C88.8595 69.921 88.9126 69.9266 88.9956 69.9266H89.1177V70.4346L88.1024 70.4672V70.1568C87.9654 70.2687 87.8284 70.3526 87.6898 70.4094C87.552 70.4654 87.4125 70.4933 87.273 70.4933C87.161 70.4933 87.058 70.4728 86.9634 70.4318C86.8696 70.3908 86.7915 70.3367 86.7276 70.2677C86.6637 70.1997 86.6164 70.1186 86.5857 70.0272C86.555 69.934 86.5384 69.8166 86.5384 69.6721V68.5973C86.5384 68.4985 86.5342 68.4361 86.5234 68.41C86.5134 68.383 86.4968 68.3643 86.4736 68.3513C86.4495 68.3373 86.4005 68.3317 86.3242 68.3317H86.1955V67.8283Z" fill="white"/>
<path d="M90.4003 67.7698V68.0643C90.5779 67.9394 90.7132 67.8602 90.8062 67.8238C90.9 67.7875 91.0013 67.7698 91.1076 67.7698C91.379 67.7698 91.5999 67.8816 91.7709 68.1063C91.9668 68.3626 92.0639 68.6907 92.0639 69.0897C92.0639 69.4719 91.9792 69.7916 91.8082 70.0489C91.6131 70.3462 91.3508 70.4935 91.0221 70.4935C90.9166 70.4935 90.8245 70.4804 90.7448 70.4534C90.6659 70.4273 90.5796 70.3779 90.4866 70.3061V70.8356C90.4866 70.9409 90.4916 71.0043 90.5007 71.0248C90.5107 71.0518 90.529 71.0705 90.553 71.0817C90.5771 71.0938 90.6377 71.0985 90.734 71.0985H90.8436V71.6018H89.3999V71.0985H89.478C89.5842 71.0985 89.6482 71.0938 89.6706 71.0845C89.693 71.0742 89.7104 71.0546 89.7229 71.0248C89.7361 70.9941 89.7428 70.9316 89.7428 70.8384V68.508H89.3999V67.9944C89.5668 67.972 89.7088 67.9432 89.8258 67.9096C89.9429 67.877 90.0624 67.8294 90.1828 67.7698H90.4003ZM90.4866 68.5882V69.4327C90.4866 69.5651 90.4974 69.6602 90.5198 69.7161C90.5431 69.7711 90.5821 69.8168 90.6369 69.8522C90.6917 69.8876 90.7547 69.9053 90.8261 69.9053C90.9523 69.9053 91.0561 69.841 91.1383 69.7114C91.2221 69.5819 91.2636 69.3861 91.2636 69.1223C91.2636 68.8772 91.2279 68.6963 91.1557 68.5779C91.0827 68.4596 90.9938 68.4008 90.8892 68.4008C90.768 68.4008 90.6335 68.4633 90.4866 68.5882Z" fill="white"/>
</svg>
