<svg width="78" height="68" viewBox="0 0 78 68" fill="none" xmlns="http://www.w3.org/2000/svg">
<g clip-path="url(#clip0_4_582)">
<path fill-rule="evenodd" clip-rule="evenodd" d="M7.42222 58.3324C6.17319 59.0728 4.68772 59.5972 2.95039 59.7772C3.51065 61.9058 4.92416 63.4123 6.68719 64.2915C7.98762 64.9393 9.47823 65.2581 10.9586 65.2427C12.4389 65.2272 13.9141 64.8879 15.1837 64.2195C16.8902 63.3197 18.2266 61.839 18.72 59.7721C14.1248 59.2528 12.2693 56.9545 11.195 55.628C11.0408 55.4377 10.902 55.2681 10.7787 55.1292C9.96139 56.3529 8.846 57.4841 7.42222 58.3324ZM25.7721 47.9722L26.8515 48.8462L27.9001 47.5403L26.795 46.6919L25.7721 47.9722ZM28.4501 44.5479L29.5346 45.422L33.9756 39.7354L33.7649 39.576C33.4976 39.3858 33.1738 39.1493 32.8808 38.8768L28.4501 44.5479ZM31.1075 26.5319C30.8967 27.6785 30.871 28.9022 31.015 30.1207C31.1178 30.9793 31.3028 31.694 31.565 32.3624C31.822 33.0411 32.1612 33.6838 32.5673 34.3985C32.6855 34.6093 32.8808 34.8972 33.0967 35.1749C33.3228 35.4782 33.5747 35.7764 33.7546 35.9667L33.9653 36.1929C34.1247 36.3677 34.284 36.5374 34.4434 36.671L35.1681 37.2777C35.384 37.4063 35.5588 37.5297 35.7387 37.6531C36.0111 37.8433 36.2938 38.0387 36.8181 38.3215C38.5965 39.2778 40.6936 39.6583 42.7445 39.4886C44.7954 39.3189 46.7897 38.6043 48.3626 37.3703C48.892 36.9538 49.4266 36.4808 49.9097 35.9667C50.3312 35.5245 50.7116 35.0463 51.02 34.5527C51.1022 34.4242 51.1845 34.2905 51.2667 34.1517L51.5031 33.7249C51.8527 33.0925 52.012 32.6092 52.2279 31.9511L52.2536 31.8688C52.8858 29.9407 52.9012 27.7813 52.3718 25.7709C51.8475 23.7812 50.799 21.9405 49.2981 20.6191C49.2467 20.5728 49.1953 20.5368 49.1439 20.4957C49.0719 20.4443 48.9999 20.3877 48.9126 20.3106C48.8457 20.2489 48.8046 20.2026 48.7635 20.1564C48.7121 20.1049 48.671 20.0587 48.5836 19.9918C48.4911 19.9199 48.4294 19.8839 48.3677 19.8479C48.306 19.817 48.2444 19.781 48.1518 19.7142C47.129 19.0098 46.1832 18.5162 45.1758 18.1974C44.1735 17.8735 43.0992 17.7141 41.8245 17.673L39.2647 17.9815C38.7456 18.1254 38.2059 18.29 37.6867 18.4956C37.1727 18.6962 36.6793 18.9378 36.2527 19.2206L35.8466 19.4931C34.798 20.1872 34.6387 20.2952 33.6004 21.4623C32.9322 22.213 32.8088 22.4289 32.336 23.2362L32.2229 23.4315C31.678 24.3622 31.3079 25.4162 31.1075 26.5319ZM29.2519 33.8586C28.7688 32.7583 28.4347 31.5552 28.2548 30.0384C28.1674 29.2878 28.1879 28.2286 28.2959 27.19C28.4038 26.1874 28.5889 25.1951 28.8407 24.5113L28.8767 24.4136C29.1543 23.6475 29.4113 22.9379 29.7865 22.249C30.0743 21.7091 30.2491 21.4623 30.4239 21.2104C30.5164 21.0767 30.614 20.943 30.7271 20.7579C30.9584 20.3826 31.3645 19.8839 31.8014 19.4057C32.264 18.9018 32.7626 18.4185 33.1172 18.1357L33.6724 17.709C33.9602 17.4828 34.2172 17.2822 34.5719 17.0766C35.7592 16.3927 36.633 15.9609 37.5479 15.6575C38.4732 15.3541 39.4343 15.1793 40.7913 15.0199C41.9941 14.876 43.3459 14.984 44.6669 15.277C46.0496 15.5855 47.3963 16.0997 48.5065 16.7424L48.7378 16.8709C49.0154 17.0252 49.2672 17.1691 49.5345 17.3799C49.6681 17.493 49.8018 17.5804 49.9354 17.6627C50.1102 17.781 50.285 17.8941 50.4854 18.074C50.5676 18.146 50.6191 18.2026 50.6705 18.2488C50.7321 18.3157 50.7887 18.3722 50.8915 18.4545C51.6779 19.0612 52.4129 19.9198 53.0451 20.8608C53.7545 21.9251 54.3404 23.1076 54.7208 24.1668C54.9984 24.938 55.0652 25.2979 55.1371 25.7092C55.168 25.8995 55.204 26.1 55.2605 26.3417C55.4661 27.2363 55.5072 28.2697 55.4404 29.3032C55.3582 30.5115 55.1269 31.7197 54.839 32.7018C54.6129 33.4679 54.2839 34.2237 53.8984 34.9435C53.5077 35.6582 53.0657 36.342 52.6134 36.9744C52.5209 37.1029 52.4438 37.1749 52.3667 37.2469C52.3153 37.288 52.2639 37.3343 52.2022 37.4166C50.6807 39.2778 48.6556 40.6506 46.4145 41.4475C44.1632 42.2496 41.6857 42.4656 39.2699 42.008C38.1956 41.8075 37.6559 41.5915 37.0237 41.3396C36.8181 41.2573 36.597 41.1699 36.3657 41.0876L27.2987 52.5893L22.0096 48.3989C23.0531 47.057 24.0862 45.715 25.145 44.3782C26.723 42.3833 30.3622 37.7816 31.0098 36.8921C30.2954 35.8484 29.7094 34.9023 29.2519 33.8586ZM35.0293 27.9458C34.9882 28.4754 35.0088 29.0204 35.0807 29.6323C35.1835 30.4652 35.4971 31.3084 35.9391 32.0642C36.4069 32.856 37.0237 33.5553 37.6919 34.0591L38.7353 34.7121C38.9152 34.7995 39.1105 34.8818 39.3058 34.964C39.5012 35.0412 39.7068 35.1132 39.8969 35.1697C41.3207 35.6119 42.7908 35.5502 44.1118 35.072C45.4533 34.5836 46.6509 33.6632 47.5145 32.3933C48.2649 31.293 48.6504 29.9819 48.671 28.6759C48.6915 27.37 48.342 26.064 47.6224 24.9637C46.9028 23.8583 45.9159 23.0048 44.78 22.4546C43.644 21.9096 42.359 21.668 41.0432 21.7965C40.6628 21.8325 40.1642 21.9559 39.6759 22.1256C39.1773 22.3004 38.6993 22.5163 38.3652 22.7323L38.139 22.8762C37.8461 23.0562 37.6816 23.159 37.3269 23.4624C37.1984 23.5704 37.0545 23.7092 36.9157 23.8531C36.7769 24.0022 36.6433 24.1565 36.5354 24.2902C36.2681 24.6398 36.0522 24.9483 35.8672 25.2774C35.6821 25.6013 35.5228 25.956 35.3686 26.3879C35.1784 26.9226 35.0705 27.4265 35.0293 27.9458ZM45.772 37.2932C44.7954 37.7148 43.7263 37.9873 42.6006 38.121C41.9992 38.1929 41.3464 38.1672 40.7296 38.085C39.974 37.9873 39.2647 37.8022 38.7353 37.6119C38.139 37.396 37.6456 37.1801 37.183 36.923C36.7204 36.671 36.2938 36.378 35.8209 36.0078C35.0345 35.4011 34.3303 34.5887 33.7649 33.6838C33.1995 32.7737 32.7729 31.7711 32.5518 30.784C32.4593 30.3778 32.4028 30.0436 32.3617 29.7197C32.3205 29.3906 32.3051 29.0564 32.2948 28.6399C32.2743 27.6528 32.4542 26.5987 32.7934 25.6013C33.1327 24.5884 33.6312 23.6321 34.2429 22.8608C34.6027 22.4032 34.9574 22.0022 35.348 21.632C35.7438 21.2567 36.1704 20.9173 36.669 20.5883C37.4092 20.1049 38.0825 19.7862 38.8021 19.5599C39.5114 19.3389 40.2567 19.2103 41.146 19.1023C42.8525 18.8967 44.6361 19.3131 46.2089 20.1409C47.8229 20.9944 49.2158 22.2952 50.0845 23.8223C50.2438 24.1051 50.3775 24.357 50.4957 24.6192C50.619 24.8866 50.7321 25.1694 50.8504 25.5036C51.0868 26.172 51.1125 26.3879 51.1433 26.6244C51.1588 26.7376 51.1742 26.8507 51.2153 27.0358C51.3695 27.6836 51.3541 27.7299 51.3284 27.843C51.3232 27.8636 51.313 27.8893 51.3335 28.1052C51.3541 28.5885 51.3284 29.1952 51.313 29.6837C51.277 29.9922 51.2256 30.3161 51.1588 30.64C51.0971 30.9331 51.02 31.221 50.9326 31.4832C50.6499 32.3521 50.3055 33.0822 49.8635 33.7506C49.4266 34.4242 48.9023 35.0309 48.2598 35.653C47.535 36.3471 46.6972 36.887 45.772 37.2932ZM38.5965 28.0127L40.9455 29.8842L44.7954 25.0254L46.9079 26.645L41.3876 33.6324L36.7307 29.9356L38.3549 27.8224L38.5965 28.0127ZM63.9883 58.209C62.7187 58.9803 61.2127 59.5458 59.5473 59.7412C60.1795 62.6462 62.2047 64.2555 64.5897 64.8725C65.7513 65.1707 66.9952 65.2375 68.2082 65.109C69.4264 64.9805 70.6086 64.6514 71.6418 64.1578C73.6156 63.2169 75.0394 61.6796 75.0599 59.7978C73.8006 59.6178 72.5773 59.2785 71.4619 58.7746C70.3362 58.2707 69.3185 57.592 68.491 56.7437C68.1054 56.3478 67.9255 56.065 67.7662 55.8079C67.6223 55.5714 67.4886 55.3606 67.1802 55.0984C66.4812 56.2501 65.3761 57.3555 63.9883 58.209ZM3.05833 48.8977C2.96581 48.7845 2.89899 48.7023 2.72423 48.5943L2.74993 57.1087C4.35362 57.0367 5.79283 56.4352 6.92877 55.4994C8.12126 54.5225 8.98479 53.1857 9.36001 51.7255C8.34228 51.6433 7.35026 51.4376 6.42505 51.1034C5.4433 50.7435 4.53352 50.2396 3.73681 49.5712C3.35131 49.2524 3.18169 49.0519 3.05833 48.8977ZM72.7726 50.5687C71.6521 51.16 70.3259 51.6073 68.7068 51.7769C69.0615 53.2114 69.8531 54.4146 70.9582 55.3195C72.1095 56.2707 73.6053 56.9031 75.2964 57.1396L75.2809 54.9596L75.2861 51.8438L75.2707 48.8051C74.551 49.4427 73.7338 50.0597 72.7726 50.5687ZM4.7237 43.2985C4.08119 43.4887 3.47467 43.6738 2.99665 43.9052C3.50551 45.9978 4.89332 47.4529 6.64607 48.2961C7.92594 48.9131 9.39599 49.2062 10.866 49.1856C12.3309 49.165 13.7907 48.8308 15.05 48.1933C16.7565 47.3243 18.0826 45.8899 18.5195 43.9104C18.2163 43.7767 17.764 43.6379 17.2345 43.4733C15.1837 42.8409 12.0123 41.864 10.7838 39.139L7.6124 42.1365L7.561 42.1777C6.69233 42.7175 5.66946 43.0209 4.7237 43.2985ZM60.8837 43.4425C60.3337 43.6121 59.8505 43.7561 59.5524 43.8949C60.1076 45.751 61.3155 47.1495 62.8266 48.0544C64.1373 48.8411 65.6742 49.2576 67.2214 49.2833C68.7685 49.309 70.3208 48.9491 71.6572 48.1778C73.1889 47.2986 74.438 45.8796 75.0805 43.8949C74.7104 43.7201 74.1758 43.571 73.5847 43.4013C72.6287 43.134 71.5287 42.8255 70.6086 42.2753C69.8993 41.8537 69.4419 41.5298 69.0461 41.1699C68.6503 40.8203 68.3213 40.4347 67.8484 39.8948L67.8022 39.8434C67.6891 39.7097 67.5246 39.5195 67.427 39.4166L67.1802 39.1801C66.8204 39.6172 66.584 39.9359 66.3989 40.1879C65.849 40.9334 65.6639 41.1905 63.9831 42.2239C63.0734 42.7792 61.8757 43.1443 60.8837 43.4425ZM70.2129 35.4525C69.7503 35.5605 69.2825 35.6684 68.7942 35.8433C68.9741 37.1903 69.704 38.2958 70.732 39.1493C71.9451 40.157 73.5642 40.8203 75.1884 41.1288L75.2655 32.7018C75.0085 32.8869 74.7721 33.0874 74.5202 33.2982C74.0165 33.7301 73.4614 34.198 72.5824 34.6556C71.7138 35.1029 70.9633 35.2777 70.2129 35.4525ZM7.9465 35.4628C6.46617 35.0412 4.45128 34.4653 2.81161 32.8303L2.75507 41.1031C4.28166 40.9385 5.78769 40.2753 6.95961 39.3035C8.09556 38.3626 8.90769 37.1492 9.11329 35.8278C8.80488 35.7096 8.40396 35.5913 7.9465 35.4628ZM7.67922 26.0949C6.43019 26.9329 4.89332 27.5294 2.96581 27.7504C3.42841 29.8122 4.76996 31.3084 6.49701 32.203C7.73576 32.8509 9.16983 33.1851 10.609 33.2108C12.0534 33.2313 13.508 32.9383 14.7776 32.3213C16.5612 31.4524 17.9953 29.9407 18.5504 27.7607C14.5103 27.3751 12.8707 25.5756 11.3903 23.9405C11.123 23.6475 10.866 23.3647 10.5988 23.0973C9.82775 24.2439 8.88713 25.2825 7.67922 26.0949ZM66.6405 23.7297C64.8364 25.7709 63.4846 27.2928 59.5473 27.7196C59.8917 29.3443 60.7655 30.64 61.9785 31.5655C63.3612 32.6195 65.1859 33.1954 67.1597 33.2211C69.5498 33.257 71.1535 32.7172 72.3563 31.7711C73.5076 30.8714 74.3249 29.5808 75.1164 28.0538C75.065 28.0178 75.0188 27.9715 74.9828 27.9304L72.9628 27.2311C70.0998 26.4599 68.6246 24.7632 67.6737 23.6732C67.4886 23.4624 67.3242 23.2773 67.1802 23.1282L66.6405 23.7297ZM3.77793 16.4699C3.45925 16.2179 3.12515 15.9557 2.73965 15.6781L2.74479 25.082C4.50782 24.9226 6.05497 24.2131 7.20633 23.1076C8.34742 22.0125 9.09787 20.5163 9.28291 18.7733C6.19889 18.3774 5.14518 17.5445 3.77793 16.4699ZM21.8657 10.7679L21.4853 10.845C20.8428 13.2101 19.7326 15.1433 18.0724 16.5213C16.5355 17.7964 14.536 18.5882 12.0071 18.7938C12.408 23.6218 16.5766 24.5267 19.049 25.0614C19.9896 25.2619 20.7041 25.4213 21.0022 25.7504C21.1872 25.956 21.3157 26.28 21.3723 26.681C21.4699 27.4111 21.3363 28.4651 20.8788 29.5911C20.4316 30.7068 19.6606 31.91 18.4836 32.9691C17.0392 34.2751 14.9729 35.3651 12.1305 35.8124C13.3847 40.1467 16.9673 40.738 19.1415 41.0928C19.9999 41.2367 20.6629 41.3447 20.9816 41.6532C21.2129 41.8692 21.3568 42.2188 21.4082 42.661C21.4905 43.3551 21.3517 44.3217 20.9456 45.3603C20.5447 46.3886 19.8868 47.5043 18.9256 48.512C17.471 50.0442 15.3224 51.345 12.3412 51.7718C12.4183 52.0803 12.5108 52.3836 12.6239 52.6664C13.323 54.4403 14.7211 55.7257 16.4276 56.4763C18.1443 57.227 20.1644 57.4429 22.097 57.0727C22.6727 56.9596 23.2432 56.8002 23.7932 56.5792C24.4871 56.3066 25.0063 55.9005 25.4586 55.5457C26.3016 54.8876 26.9595 54.3734 28.1211 54.8773L28.2805 55.0418C29.0104 56.8157 27.5095 57.6383 26.1474 58.3838L26.0034 58.4661C24.96 59.0368 24.1325 59.2271 23.2895 59.4224C22.8063 59.5355 22.318 59.6487 21.7835 59.8389C21.9788 61.8492 23.382 63.3454 25.2838 64.2298C26.4301 64.7645 27.7562 65.0781 29.1029 65.1501C30.4547 65.2221 31.8271 65.0524 33.0658 64.6257C35.2349 63.8699 37.0031 62.3068 37.5222 59.8235C37.2395 59.7155 36.854 59.5972 36.4171 59.4636C35.8106 59.2785 35.1013 59.0625 34.4074 58.8003C32.4131 58.0445 30.5575 56.9185 31.2617 55.0521L31.3079 54.9287L31.4313 54.8773C32.6546 54.3529 33.1841 54.795 33.9808 55.4531C34.8597 56.1833 36.1139 57.227 39.4395 57.2373C40.2053 57.2373 40.9506 57.1499 41.6497 56.975C42.359 56.8054 43.0221 56.5483 43.6235 56.2141C44.415 55.7822 44.8982 55.3606 45.2477 55.0624C46.0958 54.3426 46.3271 54.1421 47.3037 55.2629C47.4682 55.4223 47.5761 55.592 47.6327 55.7668C47.792 56.2398 47.5916 56.6974 47.1547 57.1293C46.7794 57.4995 46.2192 57.8594 45.5715 58.1885C44.0501 58.9648 42.0095 59.5767 40.853 59.7669C41.3362 61.8595 42.724 63.3557 44.4921 64.2349C45.7617 64.8725 47.2266 65.1964 48.6967 65.2015C50.1667 65.2067 51.6368 64.8982 52.9166 64.2709C54.7002 63.402 56.1137 61.9109 56.6226 59.7926C55.4301 59.6589 53.8367 59.2373 52.5003 58.6152C51.7447 58.2656 51.0662 57.8491 50.5831 57.3761C50.0639 56.8722 49.7607 56.3066 49.8018 55.6897C49.8121 55.4789 49.8686 55.2629 49.9714 55.0521L50.1153 54.903C51.2924 54.3323 51.9452 54.8567 52.7881 55.5303C53.1942 55.8593 53.6568 56.2295 54.2479 56.4917C54.6334 56.6614 55.0343 56.8054 55.4507 56.9185C57.2651 57.4224 59.316 57.3812 61.1356 56.718C62.9346 56.065 64.5023 54.795 65.3709 52.8515C65.484 52.5893 65.592 52.3168 65.6793 52.0237L64.2761 51.4736C63.3355 51.2216 62.4103 50.8617 61.557 50.3939C60.7449 49.9465 59.9893 49.4015 59.3468 48.7588C58.6529 48.0647 57.6763 46.7279 57.1366 45.2215C56.746 44.1366 56.5815 42.954 56.895 41.8486L56.9464 41.756C57.1161 41.5195 57.6146 41.4321 58.3394 41.3036C60.4468 40.9283 64.7233 40.1673 65.6845 35.8278C65.5097 35.7661 65.2527 35.6941 64.9546 35.6119C63.5411 35.2211 61.115 34.5476 59.5833 32.9177C58.8688 32.1568 58.0567 31.2364 57.4861 30.095C56.9053 28.933 56.5763 27.5653 56.8539 25.9303L56.8745 25.7966L56.9927 25.7247C57.3217 25.5139 57.9179 25.3802 58.6786 25.2105C61.1407 24.6655 65.4223 23.7143 65.8695 18.7784C63.4486 18.4956 61.4954 17.6627 59.9996 16.367C58.4216 15.0045 57.3525 13.133 56.7768 10.8501C55.3119 10.5571 53.6568 10.1406 52.1868 9.40537C50.7527 8.68555 49.5037 7.66752 48.7841 6.18161C48.7481 6.20218 48.7121 6.2176 48.6761 6.23303C48.3317 6.55694 48.0028 6.886 47.679 7.2202C45.957 8.97862 44.2351 10.737 39.4498 10.8707C37.2704 10.9273 35.1475 10.3925 33.4205 9.48763C31.7705 8.62899 30.4701 7.43101 29.7968 6.08906C29.3393 6.56209 28.887 7.04539 28.4193 7.50813C27.7767 8.15083 27.3655 8.56215 26.5329 9.10716C24.9189 10.1663 23.8189 10.3823 21.8657 10.7679ZM75.2758 15.7963C72.9782 17.637 72.5207 17.8941 68.5629 18.8813C68.7068 20.614 69.4213 21.9868 70.5315 23.0099C71.7446 24.1359 73.4357 24.8557 75.3683 25.1745L75.3375 18.2026L75.2758 15.7963ZM59.5935 10.8913L59.5833 10.8964C60.0818 12.8759 61.372 14.3053 63.0117 15.1742C64.2864 15.8529 65.7719 16.1974 67.2625 16.2025C68.7531 16.2076 70.2437 15.8786 71.5338 15.2153C73.2249 14.3413 74.5613 12.8913 75.0856 10.8553C74.4688 10.4902 73.9702 10.408 73.4408 10.3257C72.1815 10.1355 70.7526 9.90924 67.427 6.39241L67.1905 6.14562C66.9078 6.50039 66.7074 6.76261 66.5377 6.98369C65.9107 7.81663 65.6999 8.08913 64.1785 9.07631C62.8626 9.92981 62.5388 10.0172 61.4285 10.3154L60.8169 10.48L60.0973 10.6908L59.5935 10.8913ZM4.94472 10.2074C4.24568 10.408 3.56205 10.6033 2.98637 10.881C3.47467 12.7628 4.68258 14.1562 6.22973 15.0457C7.53016 15.7963 9.06189 16.1922 10.6142 16.2179C12.1665 16.2488 13.729 15.9146 15.086 15.205C16.7462 14.3361 18.0981 12.8913 18.7149 10.8553C18.2728 10.6239 17.7537 10.5005 17.1729 10.3668C15.6514 10.0121 13.7445 9.56475 11.4777 6.88086L10.7889 6.15076C10.4137 6.57751 10.1721 6.90143 9.97167 7.17907C9.45767 7.88347 9.14927 8.29993 7.60726 9.1997C6.79513 9.67787 5.85965 9.94523 4.94472 10.2074ZM75.209 8.10455L75.2809 2.89616L68.7377 2.86531C69.1026 4.26381 69.8582 5.40009 70.9016 6.25873C72.0427 7.19964 73.523 7.81663 75.209 8.10455ZM62.3589 7.09167C63.9523 6.20218 65.1962 4.77797 65.6691 2.85502L50.1719 2.87559C50.8041 4.97334 52.1919 6.43355 53.8984 7.28705C55.2091 7.94002 56.6997 8.23823 58.1749 8.20224C59.6501 8.16625 61.115 7.79092 62.3589 7.09167ZM43.901 7.04539C45.4893 6.15076 46.7229 4.74712 47.2061 2.85502L31.1435 2.87559C31.7911 4.93735 33.2098 6.38727 34.9471 7.25105C36.3298 7.93488 37.9129 8.25366 39.4806 8.21253C41.0483 8.17653 42.5955 7.78063 43.901 7.04539ZM25.4483 6.68034C26.7642 5.74458 27.6996 4.42834 28.116 2.87045H12.3823C12.701 4.35122 13.6057 5.60576 14.8598 6.52609C16.2836 7.56983 18.1546 8.18168 20.1284 8.20738C22.2307 8.23309 24.0554 7.67266 25.4483 6.68034ZM9.28805 3.01955L2.72937 2.88073L2.76021 8.08399C3.54663 8.012 4.22512 7.85262 4.84706 7.60068C5.55124 7.32304 6.19375 6.92714 6.85681 6.42841C7.6124 5.85769 8.06986 5.44637 8.42452 4.92707C8.73292 4.45919 8.97965 3.88848 9.28805 3.01955ZM60.7758 65.9419C59.7786 65.2015 58.9716 64.2863 58.0978 63.2529C57.959 63.3917 57.7997 63.5717 57.6249 63.7773C56.3142 65.2838 53.9395 68.0037 48.4602 67.9009C47.0313 67.8752 45.4893 67.5358 44.0963 66.9754C42.6931 66.4201 41.4287 65.6437 40.5497 64.7439L40.5189 64.708L39.3418 63.0832L39.1722 62.8673C37.3321 65.3609 34.942 66.9651 32.3514 67.6284C29.622 68.3276 26.6819 67.9831 23.9423 66.5332C23.4643 66.2813 23.0942 66.0448 22.7498 65.7774C22.4106 65.51 22.1073 65.217 21.7526 64.8571L20.1592 63.2375C18.4116 65.51 16.114 66.924 13.6931 67.5564C11.6062 68.1065 9.42683 68.0705 7.44278 67.4947C5.44844 66.924 3.65457 65.8082 2.34386 64.2144C0.986895 62.5639 0.13879 60.3942 0.12851 57.772L0.107949 54.7436C0.0205689 41.4218 -0.241573 1.26114 0.616813 0.531039L0.693913 0.484765C1.39296 0.186555 21.6704 0.0168836 41.2025 0.0220252C59.2132 0.0271667 76.6225 0.17113 77.5014 0.495048L77.6402 0.541322L77.6865 0.685286C78.072 1.84214 78.0103 26.7581 77.964 43.4168C77.9486 49.8283 77.9332 55.0161 77.9486 57.1447C77.9537 58.0599 77.8818 58.9186 77.7327 59.7155C77.2341 62.4405 75.9029 64.4869 74.0833 65.8494C72.2689 67.2119 69.9764 67.8957 67.5606 67.9163C66.7074 67.9214 65.8387 67.8443 64.97 67.6849C63.1556 67.3507 61.8603 66.7543 60.7758 65.9419Z" fill="#1B699A"/>
</g>
<defs>
<clipPath id="clip0_4_582">
<rect width="78" height="68" fill="white"/>
</clipPath>
</defs>
</svg>
