<svg width="92" height="72" viewBox="0 0 92 72" fill="none" xmlns="http://www.w3.org/2000/svg">
<path fill-rule="evenodd" clip-rule="evenodd" d="M12.9323 58.6715C9.8423 61.0136 4.55477 65.0293 3.61177 66.3749L3.80542 66.4968C5.82613 67.7667 8.03208 69.1459 11.4757 67.6742C12.4482 67.2579 12.8481 66.8542 13.2607 66.4338C13.5764 66.11 13.9048 65.7778 14.4773 65.4204C15.1888 64.9788 16.0265 64.756 16.8474 64.5415C17.441 64.3818 18.0304 64.2262 18.5272 63.9949L18.5608 54.2437C18.2577 54.4413 17.9588 54.6852 17.6642 54.9291C17.4368 55.1099 17.2137 55.2949 16.9864 55.4589C16.4854 55.8247 16.1486 56.1107 15.7655 56.4429C15.5424 56.6321 15.3024 56.8339 14.9867 57.0904C14.6457 57.368 13.8964 57.9398 12.9323 58.6715V58.6715ZM80.3863 23.1694C81.9481 23.1694 84.373 22.833 85.0297 21.5337C85.3581 20.8819 84.8698 17.8417 84.8698 16.7485C90.2415 19.5868 89.429 26.5501 85.0887 29.5104C84.3772 29.994 83.3753 30.1495 83.3753 31.2386V51.8553C83.3753 53.8611 86.5242 52.4356 88.6628 56.8802C90.2036 60.0801 89.2606 64.3607 86.0696 66.4926C86.1411 63.2464 87.5725 61.4089 83.8341 60.3619C81.3798 59.6765 77.9404 60.8622 77.8604 62.4643C77.8562 62.6199 77.9699 63.9697 77.9993 64.3944C78.0541 65.0966 78.1425 65.5675 78.1425 66.4926C76.2144 65.9796 74.5515 62.9857 74.5515 60.5174C74.5515 57.3806 76.2186 54.7441 78.4919 53.5499C79.4391 53.0537 79.7843 52.7762 79.7843 51.4054V32.2814C79.7843 29.872 78.5003 30.6289 76.6396 29.3001C75.5534 28.5222 74.4841 27.1136 74.0463 25.6166C73.5453 23.8884 73.638 22.0172 74.1937 20.4194C74.7536 18.8005 75.6797 17.7408 76.9427 16.8956C76.9427 17.9847 76.4249 20.8188 76.7869 21.5337C77.1742 22.299 79.1318 23.1694 80.3863 23.1694V23.1694ZM71.1121 23.1694C71.1121 26.3483 72.4382 29.3632 74.6988 31.0914C75.2293 31.4993 76.3617 32.2604 77.0942 32.4328V51.4054C76.7532 51.5862 76.4838 51.7376 76.1723 51.9815C75.1661 52.7762 74.4715 53.4069 73.739 54.4792C72.0761 56.9096 72.0088 58.2972 72.0088 61.1145C72.0088 64.4196 74.2063 67.2453 76.669 68.7086C77.5868 69.2552 80.3821 70.7017 80.9083 68.7969C81.0514 68.2839 80.5336 63.9865 80.5336 63.0572C82.3649 62.6325 81.9944 62.6325 83.8257 63.0572C83.6068 63.9991 83.3753 67.67 83.3753 68.7338C83.3753 70.8489 87.564 69.3982 89.6395 66.7743C90.3088 65.925 90.7298 65.3405 91.155 64.2556C92.498 60.8454 92.1064 57.0442 90.0184 54.0292C89.2901 52.9738 87.2778 51.275 85.918 50.9555V31.9829C88.326 30.713 91.155 27.2566 91.155 23.6193C91.155 20.7936 90.5741 18.3337 88.8775 16.6307C87.9892 15.7393 87.7282 15.4281 86.5832 14.7385C85.6823 14.1919 82.1797 12.6234 82.1797 14.6544C82.1797 16.7527 82.4786 18.3127 82.4786 20.3311C80.6557 20.7558 81.1609 20.7558 79.3381 20.3311C79.3381 16.8704 80.6431 13.6074 78.4414 13.6074C76.7195 13.6074 74.4378 15.3903 73.2464 16.7905C72.0635 18.1823 71.1121 20.6296 71.1121 23.1694ZM36.2758 11.917L22.4002 2.9143L8.65934 11.9801L36.2758 11.917ZM39.7952 10.8994C41.2097 11.6984 42.8136 12.6066 42.0138 14.1162L41.9127 14.2255C40.7045 14.953 25.6333 14.7722 18.5482 14.6881C17.0832 14.6712 15.9634 14.6544 15.3824 14.6544L5.5525 14.667C3.41812 14.6923 2.58878 14.255 2.58036 13.5527C2.56773 12.245 6.12082 10.1089 8.62146 8.60355C9.25293 8.2251 9.81705 7.88451 10.2128 7.62801C11.2231 6.97624 12.2672 6.28243 13.307 5.58862C14.9362 4.50375 16.5612 3.4273 18.1904 2.41391C18.9524 1.93876 19.5628 1.53508 20.0638 1.2071C21.3014 0.387142 21.9119 -0.0123252 22.5728 0.000289594C23.2085 0.0129043 23.7768 0.408166 24.8882 1.17767C25.4397 1.56452 26.1301 2.04388 26.9931 2.59472L39.0416 10.4579C39.269 10.6009 39.53 10.7481 39.7952 10.8994V10.8994ZM15.2982 30.8139L30.3862 30.7592L31.5481 27.1346L13.989 27.1514L15.2982 30.8139V30.8139ZM37.2019 15.9916C37.644 16.1303 37.926 16.5172 38.0397 17.333C38.2881 19.1411 38.2249 20.6801 37.7913 22.0551C37.3535 23.4385 36.5452 24.6495 35.3117 25.789C34.6466 26.403 34.6339 26.445 34.3603 27.3196L34.1961 27.8326C32.7858 32.2184 32.9458 33.648 33.0763 34.7623C33.1647 35.5318 33.2363 36.1626 32.8321 37.4072L32.7858 37.546L32.6427 37.588C31.245 37.9707 30.6599 37.5418 30.4241 36.6966C30.2684 36.1331 30.302 35.3973 30.3399 34.6025C30.3526 34.2577 30.3694 33.8961 30.3694 33.5471L15.5803 33.5513C15.6561 36.3266 15.6308 39.1396 15.6098 41.9485C15.5887 44.1267 15.5719 46.309 15.5971 48.4746C15.6013 48.6259 15.6098 48.7983 15.6182 48.9791C15.6687 50.0724 15.7276 51.3003 14.5405 51.5736C13.5175 51.8133 13.0965 51.3465 12.9323 50.6443C12.8271 50.1902 12.8481 49.6393 12.8692 49.1558L12.8818 48.7563L12.8986 33.6018C12.8776 32.1805 12.3977 30.8518 11.9177 29.5272C11.6946 28.9133 11.4757 28.3036 11.2989 27.6855C10.7643 25.8227 10.4191 25.625 9.97281 25.377C9.51815 25.1247 8.97508 24.8219 8.17943 23.3208C7.78791 22.5849 7.58163 21.4874 7.50585 20.3311C7.40903 18.893 7.51427 17.3498 7.69951 16.3406L7.73318 16.164L7.90579 16.1219C9.37922 15.7603 9.96018 16.2018 10.1749 17.0807C10.3012 17.5979 10.2759 18.258 10.2507 18.9855C10.1917 20.5035 10.1202 22.3368 11.4841 23.4385C12.9576 24.6285 16.2286 24.5528 19.2597 24.4813C20.009 24.4645 20.7415 24.4477 21.4319 24.4477C21.4235 24.1449 21.4025 23.7581 21.3772 23.3208C21.2215 20.6506 20.9647 16.2102 22.6907 16.042C23.7305 15.9453 24.0757 16.6602 24.1683 17.5937C24.2146 18.0898 24.1852 18.6407 24.1557 19.1453C24.1431 19.4144 24.1304 19.6667 24.1304 19.8769L24.1262 21.1931C24.1262 22.2695 24.1262 23.3418 24.101 24.414C34.8823 24.8219 34.9328 23.6235 35.0633 20.2343C35.1054 19.1621 35.156 17.8796 35.5054 16.3742L35.5433 16.2186L35.6948 16.1724C36.3052 15.9832 36.7978 15.8654 37.2019 15.9916V15.9916ZM25.2587 51.1321C24.8503 50.7704 24.4462 50.413 23.8315 50.0977L21.7182 51.7207C21.5793 51.8721 21.4656 51.9688 21.373 52.0319C21.3562 52.116 21.3225 52.2464 21.2636 52.4356V63.9991C21.8571 64.2934 22.396 64.4154 22.9391 64.5415C23.8652 64.756 24.8166 64.9746 26.1259 65.9922C26.3701 66.1815 26.6016 66.3749 26.8205 66.5599C27.8814 67.4471 28.7318 68.162 31.0977 68.2124C33.8257 68.2755 34.4192 67.7289 35.2781 66.9468C36.1958 66.1058 37.3956 65.0083 41.3318 64.0538C41.3865 62.4223 41.3739 60.7403 41.3612 59.0794C41.3528 58.2804 41.3444 57.4857 41.3444 56.876L41.3486 55.7617C41.3486 54.8282 41.3528 53.8905 41.3444 52.9528C41.3402 52.7552 41.3318 52.5323 41.3191 52.3094C41.256 51.0101 41.1929 49.6645 42.5989 49.5468C43.6472 49.4627 44.0303 50.3878 44.1439 51.7418C44.2113 52.6038 44.1692 53.655 44.1271 54.7104C44.1018 55.3412 44.0766 55.9761 44.0766 56.5985C44.0766 57.2376 44.0639 58.0113 44.0513 58.806C44.0176 60.6015 43.984 62.5022 44.1145 64.0916C46.6319 64.5205 48.2401 65.6096 49.6883 66.5851C51.7174 67.9517 53.4098 69.0955 56.9544 67.691C57.889 67.321 58.0616 67.136 58.3731 66.808C58.5205 66.6482 58.6973 66.459 58.9878 66.2067C59.6361 65.639 60.4317 65.1723 61.3411 64.8149C62.1788 64.4827 63.1176 64.243 64.1238 64.1042L64.1995 49.2062C62.2546 49.4165 61.3032 50.2154 60.3223 51.0353C59.0551 52.095 57.7417 53.1925 54.4033 53.2682C53.3213 53.2892 52.2899 53.1588 51.3469 52.8981C50.3534 52.6248 49.4567 52.2127 48.7032 51.6997C48.1433 51.3171 47.7812 50.9723 47.4571 50.6653C46.7877 50.0262 46.2783 49.5384 44.3376 49.1978C40.9318 48.5965 39.0795 49.8916 37.2398 51.1825C35.017 52.7383 32.8027 54.2857 28.0835 52.7846C26.5806 52.3052 25.9154 51.7123 25.2587 51.1321V51.1321ZM47.8023 33.2822C47.4571 32.9164 47.1413 32.58 46.2783 32.2226C46.0089 32.395 45.6679 32.6388 45.3185 32.8995C44.8849 33.2317 44.447 33.5849 44.1229 33.8583L44.0808 46.4478C47.4065 46.986 48.6106 48.0414 49.6672 48.9623C50.6565 49.8243 51.5069 50.5686 54.1086 50.577C56.6387 50.5896 57.527 49.8243 58.5584 48.9455C59.6487 48.0078 60.8906 46.944 64.1448 46.4478L64.2037 31.5456C63.286 31.6759 62.604 31.8651 62.0315 32.1427C61.4 32.4454 60.8948 32.8575 60.3518 33.3999C59.7792 33.976 59.1225 34.4301 58.3605 34.7791C57.607 35.1239 56.7566 35.3594 55.7841 35.5024C54.8032 35.6496 53.7465 35.658 52.7362 35.5402C51.7385 35.4183 50.7786 35.1702 49.9703 34.8002C48.6653 34.2073 48.2148 33.7237 47.8023 33.2822V33.2822ZM41.3318 46.4057L41.357 36.2509L26.1638 48.2349L26.5974 48.7857C26.7195 48.9077 26.8205 48.996 26.9258 49.0885C27.0352 49.181 27.1573 49.2735 27.3131 49.3912C28.1761 50.0472 29.2917 50.4172 30.4368 50.5434C31.7039 50.6821 33.0005 50.5223 34.0404 50.1187C35.2275 49.6603 35.5222 49.3071 35.8295 48.9413C36.381 48.2853 36.962 47.5915 41.3318 46.4057V46.4057ZM52.3699 27.3364C51.4143 28.1186 49.6209 29.5861 48.5222 30.2505C48.619 30.4481 48.6569 30.5238 48.699 30.57C48.7326 30.6037 48.7874 30.6415 48.8758 30.7088C49.04 30.8223 49.3094 31.0157 49.8104 31.4362L49.924 31.5287C50.4124 31.945 50.707 32.1931 51.4353 32.4833C52.1805 32.7776 53.0814 32.9332 53.9865 32.9458C54.9085 32.9626 55.8304 32.8323 56.6092 32.5632C57.7796 32.1595 58.3942 31.6255 59.0172 31.083C60.0065 30.221 61.0295 29.3296 64.1364 28.804L64.1827 18.0099L56.5334 24.0272C55.8809 24.536 55.2663 25.0153 54.5296 25.5998C53.877 26.117 53.2077 26.651 52.4752 27.2523L52.3699 27.3364V27.3364ZM64.0396 14.5157C64.7005 13.9017 65.2688 13.3719 66.2202 14.133L66.2287 14.1414C66.3802 14.2718 66.4813 14.3475 66.5528 14.3979C66.6791 14.4862 66.7381 14.5325 66.7886 14.646C66.8265 14.7385 66.8307 14.8142 66.8349 14.9614C66.8391 15.0833 66.8433 15.281 66.8812 15.6173C66.9107 15.8781 66.898 16.4794 66.8854 16.9419L66.877 17.354C66.8433 20.3983 66.8643 28.0176 66.8854 36.3223C66.9233 49.7865 66.9654 65.0545 66.7802 65.6306C66.5191 66.4506 65.4372 66.6692 64.1827 66.9173C63.2818 67.0981 62.2841 67.2958 61.5221 67.7415C61.038 68.0232 60.7896 68.2713 60.5201 68.5404C60.3054 68.7591 60.0781 68.9861 59.7245 69.2552C58.5963 70.1046 57.1439 70.605 55.6368 70.7942C54.0118 70.9961 52.311 70.8405 50.8628 70.378C49.7051 70.0037 48.821 69.3393 47.9244 68.6666C46.2615 67.4177 44.5523 66.131 40.9066 66.8669C39.189 67.2159 38.5407 67.8088 37.8334 68.4605C37.4798 68.7843 37.1135 69.1207 36.5999 69.4613C35.0213 70.4999 32.8742 70.9709 30.803 70.8868C28.736 70.8027 26.7363 70.1677 25.4355 68.9987L25.124 68.717C23.9242 67.6237 23.2422 67.0098 20.9394 66.7617C19.8827 66.6524 18.8555 66.6987 17.9167 66.9173C17.0327 67.1234 16.2244 67.4808 15.5466 68.0106C14.1237 69.1165 12.6797 70.1467 10.9579 70.6639C9.22346 71.1811 7.22801 71.1685 4.73158 70.1845C4.26429 69.9995 3.41812 69.4781 2.5972 68.9146C1.67946 68.2881 0.778558 67.5943 0.462821 67.2537C-0.0339375 66.7239 -0.0886653 66.2319 0.100777 65.7694C0.26917 65.3573 0.648054 64.9957 1.06062 64.6761L61.7115 16.4878C62.2378 16.0715 62.6672 15.7014 63.1134 15.3188L63.6901 14.831C63.8038 14.7385 63.9217 14.625 64.0396 14.5157V14.5157Z" fill="#1B699A"/>
</svg>
