<svg width="116" height="60" viewBox="0 0 116 60" fill="none" xmlns="http://www.w3.org/2000/svg">
<path fill-rule="evenodd" clip-rule="evenodd" d="M76.6493 40.0192C75.9576 38.9199 75.2724 37.8206 74.8176 36.9119L70.8916 43.6983L73.5431 43.7937L76.944 43.7809L78.7821 43.7937C78.3914 42.8087 77.514 41.4108 76.6493 40.0192ZM77.4563 35.0946L82.5928 43.7682L93.3333 43.7937C92.9746 42.9739 92.5648 42.2559 92.1549 41.5315C91.8026 40.9088 91.444 40.2734 91.0981 39.5553C90.8035 38.9326 90.5665 38.4052 90.3616 37.9413C89.6122 36.2575 89.2664 35.4822 88.3057 35.1772C87.4155 34.8913 85.9488 34.9294 83.2269 34.9993C81.7282 35.0374 79.8388 35.0883 77.4563 35.0946ZM79.7556 27.6601C78.7757 29.4266 77.8342 31.1867 77.4307 32.0509L87.108 32.0064C86.7558 31.1994 85.8912 29.5028 84.9753 27.7681C83.9762 25.8809 82.9194 23.9619 82.3943 23.1295C81.8563 23.9555 80.7867 25.8046 79.7556 27.6601ZM60.2856 28.1621C60.529 28.5624 60.8364 29.0453 61.1566 29.5854L64.8137 36.3464L66.0625 34.5926L66.1394 34.4592C66.5493 33.7729 66.8695 33.2328 67.2538 32.4703C67.9583 31.0724 68.5155 30.1446 68.919 29.4647C69.4698 28.5433 69.726 28.1176 69.6619 27.7173C69.6043 27.3487 69.2841 26.8785 68.6948 26.008C67.9647 24.9468 66.8503 23.3074 65.3004 20.4797L65.1275 20.162C64.9417 19.8253 64.8201 19.5965 64.5767 19.228L63.9746 18.421C63.6288 19.1962 63.1933 20.0032 62.7578 20.8229C62.4311 21.4392 62.0981 22.0556 61.8035 22.6656C60.9773 24.3622 60.3176 25.2391 59.9013 25.7919C59.6323 26.1541 59.4722 26.3575 59.4594 26.5354C59.4338 26.7959 59.6836 27.2026 60.2856 28.1621ZM94.4477 32.9278C94.7551 34.008 94.7808 34.1034 93.8969 34.7324L93.8777 34.7451C93.6151 34.9231 93.5319 34.9866 93.4678 35.012C93.1476 35.1455 93.0963 35.0184 93.0131 34.8405V34.8341C92.9746 34.7642 93.1155 35.0629 93.0835 35.0756L92.4175 35.3043C93.2501 36.6641 93.9866 38.132 94.7231 39.5935C95.4468 41.0232 96.1705 42.4529 96.9839 43.8C97.2465 43.7937 97.5027 43.7746 97.7333 43.7619C98.1368 43.7365 98.4826 43.7174 98.7964 43.7238C100.084 43.7492 100.538 44.1558 100.5 46.1384V46.3354L100.327 46.4243C100 46.5959 99.9557 46.6023 99.8468 46.615C99.7955 46.6213 99.7251 46.6277 99.4177 46.7484L98.6107 47.1233C99.2448 48.1336 99.36 48.9724 99.1743 49.5379C99.0846 49.8112 98.9245 50.0272 98.7196 50.1734C98.5082 50.3259 98.2584 50.4021 97.983 50.3958C97.4066 50.3767 96.7213 49.9891 96.1705 49.1376C96.0425 48.9343 95.9144 48.6801 95.7927 48.4259C95.7222 48.2861 95.6582 48.1463 95.5813 48.0065L94.8448 46.8882L84.29 46.8946L84.3989 47.0979C84.8857 48.0065 85.2059 48.6102 84.8985 49.9255L84.8536 50.1162L84.6615 50.1734C82.5864 50.758 82.0612 49.6333 81.5168 48.4768C81.1454 47.6825 80.7611 46.8691 79.6723 46.8691L71.1798 46.8628C71.3143 47.1487 71.4552 47.3711 71.5769 47.5745C72.0444 48.3243 72.3134 48.7627 71.468 49.97L71.3271 50.0844C69.6811 50.8088 69.2392 49.951 68.6436 48.8072C68.5667 48.661 68.4835 48.5085 68.3938 48.3497C68.1569 48.6737 67.843 49.1694 67.5228 49.7159C67.0424 50.5229 66.5493 51.4315 66.2547 52.0288L105.56 52.0415L85.9872 16.8832L85.8079 16.6545L84.6743 18.9738L85.0522 18.9865C86.5508 19.031 87.2618 19.0564 87.4603 20.8864L87.4731 21.0389L87.3642 21.1533C86.4484 22.0747 86.3523 22.0683 86.0065 22.0493C85.9104 22.0429 85.7887 22.0365 85.5133 22.1192L90.701 32.0191C91.0084 32.0191 91.2966 32.0001 91.572 31.9874C92.6992 31.9302 93.5575 31.8794 94.3709 32.7944L94.4477 32.9278ZM70.8212 23.7141L71.5065 24.8451C72.6593 23.3646 73.652 21.255 74.5678 19.3169C74.9393 18.5353 75.298 17.7728 75.6566 17.0802C76.2715 15.8983 76.7582 15.212 77.0977 14.7418C77.4051 14.3097 77.5716 14.081 77.5524 13.8522C77.5268 13.5409 77.2578 13.0706 76.6878 12.0857C76.2843 11.3804 75.7399 10.4336 75.0418 9.11191C74.824 8.71159 74.5871 8.22867 74.3309 7.71397C73.6712 6.36051 72.8706 4.74016 72.2366 3.93952C71.6922 4.91173 71.1222 5.85216 70.565 6.76718C70.1359 7.47251 69.7132 8.17148 69.3161 8.85774C68.9766 9.44869 68.7717 9.91256 68.5667 10.3891C68.4066 10.7513 68.2465 11.1262 68.0159 11.5774C67.7149 12.162 67.3691 12.6131 67.0424 13.0452C66.735 13.4455 66.4404 13.8332 66.2355 14.2716C65.7103 15.3836 65.8704 15.6187 66.5109 16.5528C66.9528 17.1946 67.5932 18.135 68.381 19.7554C68.9446 20.9245 69.3929 21.5663 69.8541 22.2335C70.1615 22.672 70.4753 23.1231 70.8212 23.7141ZM57.7622 23.8602L57.775 23.8729C58.6268 22.0238 59.6451 20.2701 60.625 18.5671C61.2271 17.5314 61.8163 16.5147 62.3607 15.4916C61.9444 14.6084 61.4512 13.6489 60.9389 12.7084C60.3881 11.6981 59.8117 10.7196 59.2865 9.89349C58.8894 9.27077 58.5051 8.62263 58.1401 7.99356C57.4932 6.90062 56.8784 5.84581 56.1867 4.96892C55.6487 6.28425 54.8673 7.59959 54.1308 8.85774C52.7986 11.1072 51.5946 13.1405 52.2478 14.3796L55.0915 19.4059C55.4565 20.1493 55.7383 20.6195 56.0586 21.1597L56.4108 21.757L57.5701 23.6315L57.7622 23.8602ZM66.0305 40.4831C69.0279 35.3424 72.0829 29.9858 74.0619 25.8745L66.0305 40.4831ZM77.578 19.9968C77.1233 20.9309 76.6622 21.865 76.169 22.7482L59.2929 53.4268C59.453 53.7127 59.722 54.1257 60.023 54.5324C60.2536 54.8501 60.5034 55.1615 60.7147 55.4093L83.4766 14.7037C84.7127 12.3018 85.5709 11.6219 86.474 12.0794C87.1721 12.4289 87.7741 13.5282 88.6131 15.0405C88.959 15.6632 89.3433 16.3622 89.7916 17.1056L111.144 55.3458L111.548 54.9073C112.06 54.3672 112.547 53.8525 112.509 53.3314L100.103 30.6339C99.0526 28.6895 97.983 26.7832 96.9135 24.8769C95.5813 22.5195 94.262 20.162 92.9747 17.7347C92.0972 16.0699 91.1365 14.3606 90.163 12.6322C88.7284 10.0841 87.2746 7.50428 86.0129 4.9435C85.7631 5.29298 85.4428 5.82039 85.0906 6.41134C84.2708 7.81564 83.3229 9.6012 82.9002 10.4209C82.3751 11.4503 81.7794 12.5559 81.1454 13.6679C80.5818 14.6656 79.9989 15.6378 79.4289 16.5337C78.7629 17.5631 78.1736 18.7768 77.578 19.9968ZM62.4568 9.42327C63.046 10.3828 63.6096 11.2978 64.0707 12.0984C64.5895 11.4122 65.2812 10.2493 65.9985 8.95941C67.1385 6.90698 68.3298 4.52411 68.9894 3.13252L58.9406 3.19607C59.69 4.92444 61.1438 7.28823 62.4568 9.42327ZM11.2328 39.1868L10.7269 40.07L4.15575 52.0352L56.5197 52.0479C57.6213 49.7603 58.9086 47.5236 60.1767 45.3187C61.0542 43.7873 61.9252 42.275 62.7129 40.7817C63.379 39.5172 63.1228 39.1105 62.1686 37.5919C61.8163 37.0327 61.3744 36.3337 60.8492 35.3933C60.2792 34.3766 59.7156 33.379 59.1584 32.4004C58.6845 31.5743 58.2233 30.7801 57.775 30.0239C57.5508 30.3607 57.2562 30.8372 56.9488 31.3647C56.2123 32.6355 55.3797 34.1796 55.0018 34.8849C54.2461 37.1471 50.3585 43.2853 49.0007 45.8969C48.7253 46.3671 48.4691 46.8564 48.2193 47.333C47.7838 48.1718 47.3739 48.947 46.932 49.5125C46.2403 50.3958 45.5038 50.7516 44.5687 50.0336C43.3711 49.1122 44.9018 46.5069 46.4133 43.9398C46.9448 43.0311 47.4828 42.1225 47.8735 41.3345C50.1279 37.2233 52.9139 32.8198 54.9442 28.6831C56.065 26.8404 55.9881 26.726 55.3349 25.7856C55.1363 25.4933 54.8865 25.1374 54.6111 24.6736C54.3229 24.1907 53.881 23.3773 53.3686 22.4496C52.2671 20.4289 50.8452 17.8237 50.0254 16.7625C48.7958 18.7959 44.6072 26.8023 40.7516 34.1796C37.8631 39.7142 35.1604 44.8866 34.0204 46.9263C33.8282 47.2695 33.6553 47.6571 33.4824 48.032C33.2838 48.4895 33.0789 48.9343 32.8547 49.3028C32.2783 50.2305 31.5674 50.7262 30.3569 49.9891L30.2673 49.9192C29.1593 48.5657 30.5235 46.4307 31.561 44.7976C31.8172 44.3973 32.0478 44.0288 32.2143 43.7301C32.7394 42.7515 33.2326 41.8238 33.7322 40.8834L35.2629 37.9604C36.0058 36.5434 36.6078 35.3869 37.2034 34.2241C38.5164 31.6887 39.8357 29.1279 41.2255 26.5926C42.2503 24.7244 43.2046 22.869 44.146 21.0389C45.1451 19.1009 46.125 17.1819 47.2074 15.2375C48.309 13.2486 48.04 12.8546 47.1498 11.5583C46.8616 11.1453 46.5221 10.6433 46.1635 10.0269C45.8881 9.56307 45.5743 8.98483 45.2412 8.38117C44.5687 7.14844 43.8386 5.82675 43.1597 4.91808C41.898 6.62739 38.8174 12.4797 37.4148 15.1485L36.9729 15.9809C35.9481 17.919 34.8594 19.9015 33.7642 21.884C32.669 23.8602 31.5418 25.8618 30.4402 27.8062L20.6348 45.503C20.2889 46.1066 19.9751 46.7166 19.6805 47.2885C19.1489 48.3306 18.6878 49.2393 18.1818 49.7921C17.5349 50.5101 16.8561 50.6817 16.0171 49.9319L15.985 49.9001C15.8121 49.6968 15.6968 49.6205 15.6264 49.5697C15.4919 49.4807 15.415 49.4299 15.3766 49.2456C15.3574 49.1185 15.3894 49.0105 15.4599 48.7691C15.4983 48.6356 15.5559 48.4386 15.6392 48.1146L15.6712 48.032L27.7567 26.0779C28.4484 24.7625 30.2545 21.5663 32.2975 17.9253C35.5639 12.1302 39.4515 5.22944 40.4314 3.177L31.0422 3.18971C30.2417 4.26359 29.2874 6.14446 28.4804 7.72032C28.205 8.26679 27.9488 8.77514 27.7247 9.19452C27.2315 10.1222 26.7255 11.0118 26.226 11.8887C25.5983 12.9944 24.9771 14.081 24.3558 15.3201C22.9853 18.0143 21.2368 21.0834 19.4627 24.1843C17.5478 27.533 15.6136 30.9326 14.1149 33.9381C13.2695 35.6284 12.1743 37.541 11.2328 39.1868ZM75.5221 3.20242L79.2496 10.3955C79.9157 9.3788 80.8828 7.7648 81.7346 6.23342C82.3943 5.05152 82.9771 3.92681 83.2909 3.177L81.0365 3.20242H75.5221ZM46.1571 3.71077C47.1626 5.66153 48.911 9.03566 49.923 10.1604C50.3521 9.44869 51.1527 7.98721 51.9148 6.52572C52.6065 5.19767 53.2662 3.88869 53.5928 3.1643L45.9009 3.22148L46.1571 3.71077ZM65.2299 0.0570464C72.4799 -0.00014228 84.559 -0.0954567 86.5508 0.247675L86.7366 0.34299C87.883 1.51853 89.4521 4.56859 90.5345 6.67187C90.6946 6.98958 90.8355 7.26282 91.0789 7.72032L115.954 53.0582L115.993 53.1789L115.999 53.2171C116.025 53.6619 115.314 55.2314 114.27 56.7119C113.226 58.1925 111.83 59.6286 110.491 59.851C110.421 59.8637 110.344 59.87 110.28 59.8764L110.113 59.8891L109.998 59.762C109.767 59.4951 109.197 58.5356 108.634 57.5253C108.141 56.6357 107.654 55.6889 107.404 55.1297H64.4486L61.9316 59.8637L61.733 59.87C50.256 60.0162 38.7085 59.9717 27.1803 59.9209C21.4674 59.9018 15.7545 59.8764 10.0608 59.8827C9.02324 59.8827 8.19064 59.9081 7.50535 59.9272C5.96184 59.9717 5.15486 59.9971 4.45036 59.6603C3.6754 59.2918 3.13742 58.5483 2.01661 56.9915C1.722 56.5849 1.38896 56.121 0.985472 55.5682C-0.558035 53.4776 -0.359492 53.1472 2.08706 49.0296C2.45853 48.4005 2.88764 47.6761 3.34236 46.8882C6.6023 41.2901 9.71493 35.4949 12.834 29.6744C15.7224 24.2923 18.6237 18.8912 21.6595 13.6044C22.8251 11.5774 23.9587 9.49317 25.086 7.42803L26.2452 5.30569C26.7576 4.37161 27.1354 3.59639 27.4364 2.96731C28.0449 1.72187 28.3779 1.03561 29.0504 0.616224C29.8574 0.114235 31.023 0.107881 33.6233 0.101526H34.6288C41.6803 0.0634007 48.7381 0.0761092 55.796 0.0824635H60.561C61.4961 0.0824635 63.1677 0.069755 65.2299 0.0570464Z" fill="#1B699A"/>
</svg>
