<svg width="73" height="73" viewBox="0 0 73 73" fill="none" xmlns="http://www.w3.org/2000/svg">
<g clip-path="url(#clip0_4_588)">
<path fill-rule="evenodd" clip-rule="evenodd" d="M59.3138 11.3208L59.3246 2.80667L61.2352 4.45353C61.838 4.95943 63.3072 5.61064 64.4751 5.68598C68.4039 5.93893 68.0756 3.67854 70.4974 2.769L70.449 11.3208C69.2703 12.0043 68.6837 11.9128 67.6396 12.9354C64.0661 16.4121 64.2544 13.7857 59.3138 11.3208ZM72.1443 42.9664C69.9216 41.7016 70.4974 45.8995 70.4974 47.2665C70.5028 49.2793 70.5082 51.2921 70.492 53.2996C67.0261 53.9777 67.4351 56.3081 64.7765 56.2542C62.9466 56.2166 62.9789 55.5169 62.0855 54.672C61.2567 53.8916 60.5032 53.7194 59.2654 53.1166C59.1309 48.8972 60.1588 42.4443 57.8715 42.8157C56.3807 43.0578 56.9028 45.9856 56.9028 47.584C56.9028 49.5 56.8974 51.4105 56.9135 53.3211C53.5068 53.9347 53.8458 56.3027 51.2356 56.2596C49.3681 56.2273 49.3573 55.4416 48.5339 54.6612C47.8719 54.0315 46.8225 53.5956 45.6654 53.1005C45.8107 51.0984 45.6761 48.9725 45.703 46.9543C45.7407 44.5379 46.365 42.1914 43.5718 43.0202C42.9367 45.216 43.3888 50.4472 43.3458 53.2673C41.7635 53.714 41.559 53.7086 40.4665 54.8227C37.4634 57.8634 36.0156 55.6515 34.9823 54.6504C34.0835 53.7786 33.4646 53.7947 32.1514 53.1274C32.173 51.276 32.1676 49.4354 32.1676 47.584C32.173 46.0609 32.7381 42.891 31.0212 42.821C28.9331 42.7349 30.0148 48.8488 29.778 52.9444C28.6317 53.6548 28.0558 53.4718 26.9848 54.5859C26.2313 55.377 26.0968 56.0174 24.3961 56.0982C22.6901 56.1735 22.3833 55.6622 21.4361 54.6612C20.3328 53.5041 20.026 53.8163 18.9443 52.9444C18.729 47.175 19.9561 42.6596 17.475 42.7888C16.0165 42.8695 16.2372 43.8113 16.2695 45.329C12.4806 45.2429 8.6487 45.3021 4.85446 45.2967C3.39597 45.2967 0.597387 44.7639 0.215272 46.3731C-0.0484405 47.4871 0.161453 50.797 0.387493 51.7227C2.99233 52.3309 12.8197 51.9649 16.2748 51.9326C16.2533 53.1005 16.2479 54.2522 16.5547 55.1187C19.0088 55.9905 18.1047 54.6558 20.2897 56.7386C25.1926 61.4209 28.5779 55.3124 30.5853 55.3555C34.4387 55.4362 33.4377 58.4824 37.684 58.5308C42.0003 58.5792 41.3814 55.377 44.5782 55.4416C47.9258 55.5116 47.1023 58.8322 51.7738 58.52C55.6757 58.2617 55.1698 54.9249 58.7326 55.4685C61.2836 55.856 61.2298 59.1928 65.8905 58.4393C67.5535 58.1702 68.0002 57.6697 69.0551 56.6041C70.8042 54.8334 71.1809 55.9959 72.5102 55.0003C72.7255 54.7204 73.4628 43.7144 72.1443 42.9664ZM72.6125 69.2677C72.9516 67.201 72.774 64.2625 72.774 62.0882C72.7793 58.0518 73.4359 56.1359 70.8688 56.8624C70.0023 58.4339 70.4974 64.833 70.4974 67.1364C69.8785 68.0998 68.2747 68.3797 67.5966 69.0201C65.7452 70.7746 64.5827 71.6196 61.9833 68.9771C60.8208 67.793 60.5086 68.0783 59.2385 67.3786C59.2654 65.4035 59.2546 63.4337 59.2546 61.4585C59.2546 59.8978 59.9597 56.3135 57.85 56.6148C55.9932 56.8786 57.2418 63.466 56.8166 67.4486C55.4658 68.0998 55.046 67.9922 54.0288 69.0093C53.2807 69.752 52.9309 70.5862 51.2249 70.5647C49.5834 70.5378 49.1313 69.7197 48.4155 68.9771C47.2853 67.8038 47.1938 68.1859 45.7515 67.4486C45.5523 62.9439 46.7094 56.2973 44.2822 56.6256C42.4685 56.8732 43.6848 63.4929 43.265 67.4486C41.8819 68.1159 41.446 68.0944 40.4987 69.0416C38.3729 71.1513 37.1082 71.2751 34.8639 68.9663C33.7983 67.8738 33.6315 68.1751 32.2052 67.4486C32.0976 65.538 32.1514 63.3906 32.1514 61.4585C32.1514 59.8816 32.8026 56.744 30.9997 56.6148C29.1591 56.4911 29.8157 59.8547 29.8157 61.4585C29.8211 63.353 29.8211 65.2366 29.8211 67.1364L27.0602 68.8425C22.9968 72.6206 23.0937 69.1008 19.0788 67.4486C17.9755 61.8783 20.4835 56.4319 17.4642 56.5933C15.8873 56.674 16.2156 57.9872 16.291 59.6072C13.4763 59.4403 2.43261 59.295 0.360583 59.8009C0.0430517 61.4209 -0.00538538 64.4724 0.371347 65.9955C2.15814 66.5875 13.4386 66.3399 16.1995 66.2377L16.4417 69.4399C18.7021 70.0803 18.6536 69.2461 20.2897 70.9307C21.1293 71.7972 21.9366 72.5452 23.7664 72.6744C28.4056 72.9973 27.9213 69.4991 31.0105 69.6659C33.949 69.8274 33.6476 72.965 37.9531 72.8305C42.2102 72.6959 41.4298 69.4453 44.8527 69.7197C47.5921 69.9404 47.366 73.3525 52.1021 72.782C55.5842 72.3623 55.3635 69.0309 58.9479 69.8112C60.767 70.2095 63.7431 76.0435 69.0928 70.8177C70.4059 69.5314 71.0195 69.9673 72.6125 69.2677ZM0.382111 31.8043C0.026906 32.9184 0.0699611 34.8289 0.107634 36.2659C0.161453 38.3487 0.575859 38.2733 2.62636 38.2787C10.3601 38.3003 22.9807 38.5424 29.7673 38.2088C29.8587 41.1688 29.2183 39.3443 27.3077 41.0235C26.269 41.9384 25.973 43.1063 23.7987 42.8533C21.7967 42.6219 19.364 38.0581 16.4363 40.3346C15.7313 42.4874 17.7118 41.8308 19.0627 42.5358C20.1606 43.1117 20.5534 44.2688 22.1088 44.8662C26.4359 46.5346 28.6747 42.7941 29.6004 42.3851C33.3085 40.749 33.0071 44.2634 36.5377 44.9523C41.3168 45.8833 41.1123 42.5627 43.7602 42.0245C47.3445 41.298 46.9678 45.0545 51.2087 45.0599C55.8264 45.0707 54.6962 41.6586 58.4205 41.9815C61.1706 42.2183 61.0953 45.5281 65.6483 45.0061C67.8441 44.7531 67.9841 44.0966 69.0497 43.0363C70.3683 41.7339 71.0087 42.3259 72.5587 41.5617C73.0323 39.791 73 30.292 72.5156 28.8766C69.604 28.7689 70.4759 30.771 70.4759 33.3974C70.4813 35.5178 70.4813 37.6437 70.4813 39.7695C66.87 40.4207 67.4674 42.8049 64.7872 42.7296C62.1824 42.6542 64.0122 41.7393 59.2493 39.5919C59.3031 37.676 59.6045 30.109 58.7757 29.0003C56.117 28.3976 56.8328 31.2607 56.892 33.3974C56.9512 35.5716 56.8651 37.6383 56.8974 39.7964C55.3904 40.3239 55.1698 40.0763 54.0719 41.3034C51.8599 43.7683 50.1915 42.8587 48.4801 41.158C47.2638 39.9471 47.027 40.4584 45.7461 39.5542C45.7515 37.4984 45.7515 35.4479 45.7515 33.3974C45.7569 31.6805 46.3489 28.4352 44.3629 28.7797C42.1833 29.1618 43.9055 35.2541 43.2058 39.6996C38.1953 41.8846 40.4772 42.7995 37.6679 42.7296C35.9403 42.6865 35.6497 41.8523 34.9339 41.1473C34.0082 40.2324 33.3516 40.3561 32.1945 39.5381C32.2106 36.8149 32.7111 30.9002 31.8231 28.8604C29.4605 28.7259 29.778 29.4524 29.8157 31.5029C25.5586 31.5514 2.31959 31.0186 0.382111 31.8043ZM43.0067 17.2086C37.5764 17.144 2.7932 16.8319 0.296001 17.4185C0.0161422 19.0008 -0.0107673 22.1707 0.328292 23.7261C2.29268 24.2589 38.7927 24.1243 43.3673 23.9521C43.2381 26.7561 42.6838 25.1092 40.7571 26.7023C39.8206 27.4773 39.4008 28.7582 37.388 28.5483C34.6702 28.2684 34.6002 24.5549 30.0148 25.6959L29.8695 27.5741C30.9513 27.8648 31.9631 27.7033 32.878 28.4083C32.9479 28.4622 36.1825 33.0368 40.8701 30.0229C42.4039 29.038 42.7269 27.2889 45.6707 28.2307C47.1508 28.7043 49.6641 32.9614 54.1849 30.3996C55.708 29.5385 56.3161 27.3158 59.2869 28.1662C60.5517 28.5321 60.6701 29.1995 61.359 29.8991C62.769 31.3199 66.2888 31.1692 67.5697 30.5288C68.1994 30.2167 68.9905 29.2264 69.5879 28.7635C70.8849 27.7625 71.4608 28.1984 72.5641 27.6333C73.0861 26.2179 73.0269 16.7027 72.4349 15.3519C69.7009 15.2012 70.4275 17.0795 70.4544 19.5228C70.4705 21.5249 70.4328 23.5216 70.5566 25.5129C69.1466 26.4386 68.6945 26.2233 67.3867 27.5203C64.1414 30.7495 62.4892 27.2189 61.7034 26.6754C60.993 26.1802 60.1911 26.0349 59.3569 25.5882C59.1632 21.541 60.2019 15.3895 58.1244 15.255C56.2623 15.1312 56.8489 18.0267 56.8543 19.835C56.8543 21.7294 56.8651 23.6185 56.8436 25.5129C55.9017 26.2125 55.3312 25.9596 54.2925 27.0252C53.6198 27.7141 53.0547 28.6182 51.5047 28.7205C49.6211 28.8497 49.4381 27.8917 48.6631 27.1113C47.8343 26.2771 47.0108 26.2071 45.7138 25.6151C45.7515 22.8273 46.2358 17.6499 45.364 15.3734C42.7161 15.1796 43.9432 16.0354 43.0067 17.2086ZM57.0212 0.38482L56.8705 3.50094L4.22478 3.47403C1.06023 3.45788 0.107634 2.88202 0.107634 5.96046C0.107634 8.7429 -0.742705 10.2391 2.33036 10.2391L56.8651 10.2498C56.822 12.1873 55.7187 11.3531 54.2118 12.7363C52.3712 14.4316 51.4993 15.3842 49.0721 13.4682C48.4317 12.9677 48.2541 12.6878 47.7212 12.2734C46.7471 11.52 45.0249 10.9549 43.631 11.6114C42.8722 13.9902 44.3468 13.2368 45.9937 14.0602C46.9947 14.5553 47.8181 15.9654 49.2228 16.5036C53.8351 18.2796 55.2344 14.3132 57.1396 13.8557C60.8315 12.9677 60.1857 16.805 64.7657 16.8534C66.5525 16.8749 68.011 16.1538 68.7967 15.3519C70.7288 13.3552 69.4964 14.3562 71.7406 13.6512L72.4833 13.3498C73.366 11.5792 72.8439 7.02069 72.8493 4.7011C72.8601 1.18672 73.3283 -1.35891 68.8183 0.836899C66.9615 1.74106 65.869 4.64728 63.1727 2.81744C63.1727 2.81744 59.9381 -1.03062 57.0212 0.38482Z" fill="#1B699A"/>
</g>
<defs>
<clipPath id="clip0_4_588">
<rect width="73" height="73" fill="white"/>
</clipPath>
</defs>
</svg>
