<svg width="114" height="60" viewBox="0 0 114 60" fill="none" xmlns="http://www.w3.org/2000/svg">
<path fill-rule="evenodd" clip-rule="evenodd" d="M72.0449 40.4468C71.3669 41.7086 70.7356 42.9352 70.4405 43.6659L77.3697 43.6717L73.9387 37.0486C73.4477 37.9114 72.7229 39.1908 72.0449 40.4468ZM6.18396 48.3933C5.44165 49.8077 4.70226 51.2133 3.91319 52.5544L4.36618 52.9065C4.51815 53.018 4.53568 53.0269 4.55029 53.0327C4.62043 53.0621 4.66719 53.0855 4.97113 53.3262C5.95308 54.1097 6.23072 54.8609 6.45575 55.4801C6.67493 56.0787 6.83275 56.5042 8.07188 56.5688C10.0241 56.6685 11.6636 55.53 13.0342 54.5792C13.4054 54.321 13.759 54.0774 14.0951 53.869C15.3868 53.0767 16.0298 52.9065 17.5056 52.5192L17.5845 52.4986C18.9961 52.126 19.5368 51.005 20.5655 48.8658C21.0769 47.7947 21.7082 46.4859 22.6287 44.8807C23.5961 43.1993 24.3851 41.7027 25.2414 40.0887L25.8084 39.0177C26.0422 38.5775 26.2935 38.2195 26.5507 37.9348C25.7441 38.3398 24.955 38.8504 24.1952 39.3434C23.1723 40.0036 22.205 40.6316 21.2756 40.9544C15.6908 42.8941 14.1974 40.1856 13.2037 38.3809C12.8794 37.7969 12.6251 37.3333 12.3913 37.3245C11.8886 37.3039 10.2783 40.5406 9.12397 42.856C8.71482 43.6776 8.35828 44.3936 8.11572 44.8221C7.44939 45.99 6.81521 47.196 6.18396 48.3933ZM30.7357 37.4624C30.0138 37.1572 29.2861 37.1132 28.5584 37.2335L28.6023 37.2599C28.8448 37.4037 29.029 37.6443 29.1313 37.9671C29.3504 38.645 29.2043 39.7865 28.3977 41.2479C27.1878 43.4458 26.0656 45.5322 24.9346 47.6333C24.0491 49.2795 23.1606 50.9346 22.2664 52.572C22.4768 52.7451 22.6726 52.8596 22.8625 52.9682C23.3009 53.2235 23.7101 53.4582 24.1513 54.1596C24.3851 54.5293 24.5547 54.9871 24.7242 55.4478C24.8352 55.75 24.9492 56.0552 25.069 56.3105C27.8658 57.0089 29.3504 55.9555 30.9987 54.7846C31.4049 54.497 31.8229 54.1977 32.2525 53.9277C34.0293 52.8068 35.0639 52.6953 35.812 52.6131C36.4608 52.5427 36.832 52.5016 37.4603 51.3718L42.1918 42.6447C42.5893 41.8993 42.9575 41.1598 43.279 40.5142C43.7729 39.5136 44.1586 38.7389 44.5473 38.1901L44.7022 37.9847C44.033 38.3222 43.4134 38.7418 42.7821 39.1673C41.6395 39.9391 40.4675 40.7314 38.904 41.1716C33.8364 42.5977 32.6002 40.3705 31.6592 38.6714C31.3494 38.1168 31.0776 37.6267 30.7357 37.4624ZM47.6627 37.2218C47.2915 37.2276 46.9408 37.2628 46.6106 37.3245C46.8765 37.4272 47.1688 37.5944 47.4961 37.8292L47.6714 37.9554L47.6802 38.1755C47.7065 38.9678 46.6953 41.2449 45.4007 43.7715C43.6121 47.2723 41.2683 51.3278 40.4705 52.5016L40.4792 52.5133C40.5406 52.5573 40.6341 52.6248 40.7686 52.7481C43.0627 54.7963 43.0189 54.9225 42.8903 55.3011C42.8786 55.3245 42.8698 55.3568 43.2264 55.888C44.6905 58.0536 48.8375 55.2072 50.3806 54.1478C50.6202 53.9835 50.7985 53.8602 50.9329 53.7839C54.212 51.8765 55.4482 51.8443 56.0794 51.8267C56.2372 51.8237 56.3278 51.8208 56.3775 51.7738C56.5499 51.6066 56.8013 51.1194 57.3799 49.9897C57.9177 48.9421 58.7272 47.3662 60.0072 45.0275C60.2469 44.5932 60.5157 44.109 60.8051 43.5925C61.8484 41.7291 63.1401 39.4226 63.8532 37.6942C62.6784 38.0845 61.7753 38.7007 60.8694 39.317C59.4578 40.2824 58.0375 41.2479 55.6264 41.4885C51.6168 41.8905 50.8891 40.3675 50.2082 38.9443C49.7756 38.0434 49.3694 37.1924 47.6627 37.2218ZM87.0109 35.2175L76.7355 35.197L81.1952 43.6923L91.4151 43.6659L87.0109 35.2175ZM85.0879 31.9221L80.9468 24.0313L76.6653 31.8898L85.0879 31.9221ZM89.4658 31.8957C90.6143 31.8399 91.9441 31.7754 92.6279 32.5119L86.0231 19.8497L85.9413 21.5106L85.7572 21.6338C84.8687 22.2295 84.6963 22.2295 84.0621 22.2266C83.954 22.2266 83.8313 22.2266 83.6822 22.2295C84.3895 23.8611 85.3773 25.566 86.368 27.268C87.2739 28.8292 88.1799 30.3903 88.8813 31.9192C89.0625 31.9162 89.2612 31.9045 89.4658 31.8957ZM85.7776 19.5093L85.8682 19.5562L84.5151 16.9651C84.0914 17.4991 83.7962 18.1711 83.4689 18.9634C84.594 18.9429 84.7314 18.9781 85.7776 19.5093ZM102.728 51.8736L93.1014 33.4216C93.2738 34.0731 92.9961 34.5015 92.4993 34.7861C92.0113 35.0708 91.2982 35.1471 90.6728 35.1852C91.1053 36.1213 91.982 37.8175 92.8763 39.4696C93.8495 41.2684 94.8344 43.0056 95.2786 43.6483C95.5299 43.6512 95.7637 43.6424 95.9829 43.6365C96.886 43.6042 97.5786 43.5837 98.4962 44.2117L98.6453 44.3144L98.6804 44.4963C98.7125 44.6695 98.7476 44.8338 98.7768 44.9717C98.8908 45.5205 98.9434 45.767 98.7154 46.0751C98.5664 46.2776 98.3472 46.3891 97.9527 46.5945C97.7218 46.7119 97.4208 46.8674 97.0204 47.1021C97.339 47.4748 97.5377 47.7859 97.64 48.1468C97.7773 48.6251 97.7218 49.124 97.5231 49.887L97.4558 50.1511L96.921 50.2684C95.641 50.5795 94.7292 50.7966 93.3994 46.9496L82.9604 46.8938C83.051 47.0875 83.1386 47.2547 83.2205 47.4073C83.6296 48.182 83.8868 48.6633 83.276 49.8547L83.2 49.9603C82.3905 50.7937 81.6423 50.6176 80.9965 49.9838C80.2249 49.2296 79.6609 47.7389 79.3599 46.9173L70.2768 46.8879C70.344 47.1021 70.4112 47.287 70.4755 47.4572C70.7473 48.1938 70.9314 48.6868 70.6246 49.8253L70.5603 50.066L70.1336 50.1863C69.5111 50.3623 69.1897 50.4563 68.8273 50.3418C68.4503 50.2244 68.2194 49.9427 67.743 49.3676C67.6407 49.2443 67.5472 49.1152 67.4479 48.989L66.0626 51.8707L102.728 51.8736ZM23.2366 20.46C23.1197 20.0081 23.0028 19.565 22.2313 19.1278L13.7795 34.3342C13.9285 34.4281 14.0805 34.5074 14.2266 34.5866C14.6591 34.8214 15.0683 35.0385 15.4541 35.511C15.7083 35.822 15.872 36.224 16.0473 36.6466C16.1876 36.987 16.3366 37.345 16.5325 37.6443C17.2017 38.6597 18.6454 39.0764 23.3798 35.9306C25.3876 34.5983 26.4484 34.4545 27.2199 34.3489C28.6578 34.1523 28.8858 34.12 35.0142 21.9771L35.2042 21.5957C35.9406 20.102 36.3673 19.2305 38.4218 19.8262L38.6585 19.8937L38.7257 20.1343C39.167 21.7688 37.8841 23.911 36.6128 26.0326C36.2884 26.5784 35.9611 27.1213 35.6718 27.6466C35.0434 28.7822 34.4122 29.9883 33.7955 31.165C33.211 32.2772 32.6411 33.3659 32.0976 34.3489C32.2232 34.4369 32.3547 34.522 32.4833 34.6071C32.8603 34.8507 33.2403 35.0972 33.5793 35.4611C33.927 35.8308 34.1433 36.2739 34.3596 36.7229C34.8973 37.8292 35.4496 38.9707 38.5475 37.8673C39.5587 37.5093 40.2133 37.0222 40.8855 36.5204C41.3004 36.2123 41.7213 35.8983 42.2239 35.6049C43.6998 34.7363 44.5999 34.5661 45.2926 34.434C46.8736 34.1347 47.2097 34.0701 53.0167 22.5318L53.2563 22.0358C53.569 21.3873 53.9022 20.6889 54.323 20.2165C54.928 19.5357 55.641 19.2921 56.5382 20.0932V20.0961C57.7949 21.2347 56.5645 23.2977 55.1355 25.6893C54.7789 26.2908 54.4048 26.9129 54.0483 27.5673L53.3966 28.7529C52.4 30.5605 51.3158 32.5295 50.4361 34.3166L51.0001 34.701C52.3299 35.6518 52.4789 36.1037 52.6689 36.6906C52.7478 36.9312 52.8355 37.2012 53.0722 37.568C53.3674 38.0287 53.8496 38.243 54.4078 38.2987C55.1968 38.3779 56.1349 38.1491 56.962 37.8351C57.982 37.4477 58.6161 36.9782 59.2708 36.494C59.6858 36.1888 60.1066 35.8778 60.6502 35.5638C63.0057 34.2051 64.1016 34.1816 64.8059 34.167C65.1245 34.1611 65.3291 34.1582 65.5599 33.9293C66.1269 33.36 66.9832 31.6932 69.3358 27.1125L69.5667 26.6606C69.8969 26.0209 70.3674 25.2139 70.873 24.3453C71.8023 22.7489 72.8574 20.9413 73.3513 19.612C72.5651 20.0375 71.7936 20.4923 71.063 20.9237C69.5199 21.8363 68.1376 22.6521 67.065 22.9279C61.8104 24.2836 60.7145 22.1121 59.8699 20.4366C59.6156 19.9318 59.3877 19.4799 59.0866 19.2892C57.2133 18.1066 55.191 19.3596 52.9494 20.7505C50.3426 22.3674 47.461 24.1516 43.9716 22.9279C42.3818 22.3704 42.0194 21.493 41.6541 20.6038C41.4553 20.1196 41.2537 19.6325 40.7861 19.2393C38.2231 18.2416 36.0517 19.7117 34.0907 21.0411C33.2081 21.6397 32.3635 22.2119 31.5101 22.5582C30.5428 22.9485 29.3738 23.2243 28.2077 23.2625C27.1966 23.2977 26.1825 23.1509 25.3057 22.743C23.6341 21.9713 23.4324 21.2054 23.2366 20.46ZM60.1563 51.8531H62.468L78.3195 21.6221C78.7783 20.7916 79.2547 19.9289 79.7223 19.0515C80.1782 18.2005 80.6136 17.3642 80.9906 16.5924L81.0578 16.4603C82.2239 14.0863 83.0071 12.4929 83.8897 12.0645C84.8541 11.595 85.7104 12.311 86.8005 14.5735C89.0187 19.1777 91.9937 24.6505 94.9396 30.0675C97.263 34.343 99.5688 38.5863 101.451 42.2955L102.009 43.4164C103.26 45.9195 105.586 50.5766 106.583 51.8589L109.713 51.8677L84.5005 5.39442C83.8926 6.3628 82.6097 8.71038 81.0929 11.5656C77.6794 17.9833 73.1438 26.8865 72.2583 28.6648C70.5807 32.0277 68.7747 35.3525 66.9715 38.6773C64.5955 43.0584 62.2195 47.4367 60.1563 51.8531ZM81.7154 3.41952L66.9627 3.44299L60.2644 16.1082C60.4807 16.2549 60.6765 16.3606 60.8577 16.4603C61.2785 16.6892 61.635 16.8858 62.0383 17.3847C62.2137 17.6018 62.3335 17.9012 62.4709 18.2445C62.6024 18.5761 62.7544 18.9576 62.9677 19.2774C63.6486 20.3016 65.1449 20.8855 69.5608 17.9276C69.9816 17.6459 70.4259 17.3612 70.9081 17.0971C71.399 16.8271 71.9251 16.5777 72.5037 16.3606C73.5354 15.9791 74.1754 15.8881 74.6284 15.8236C74.9995 15.7678 75.1983 15.7385 75.3941 15.5184C75.7155 15.1574 76.1276 14.3504 77.019 12.6044C77.4603 11.7388 78.0185 10.6442 78.7374 9.27087C78.9566 8.8483 79.1991 8.39933 79.4592 7.91807C80.2337 6.48605 81.1747 4.7459 81.7154 3.41952ZM63.333 3.42832H48.9135L42.034 16.1346C42.1567 16.2109 42.2795 16.2872 42.4022 16.3635C42.9049 16.6657 43.3988 16.9651 43.805 17.5256C43.9336 17.7016 44.03 17.9393 44.1411 18.2181C44.2755 18.5526 44.4392 18.9605 44.6818 19.3068C45.4007 20.328 46.9817 20.9237 51.3304 17.8395C53.3148 16.431 54.5685 16.1992 55.4832 16.029C56.2226 15.891 56.699 15.803 57.2104 14.9109C57.8329 13.8281 58.3706 12.7864 58.9055 11.7446C59.376 10.8261 59.8465 9.91058 60.3638 8.99209L60.7875 8.2438C61.5561 6.89101 62.7427 4.81046 63.333 3.42832ZM44.9594 3.38431L30.3061 3.43713L23.637 16.0818L23.9088 16.2432C24.4874 16.5895 24.993 16.8946 25.4139 17.4757C25.6243 17.772 25.7178 17.9833 25.8376 18.268C25.8902 18.3883 25.9487 18.5233 26.0159 18.6641C26.2205 19.1014 26.2935 19.3449 26.3228 19.4887C26.3929 19.5415 26.4952 19.6149 26.6501 19.7352C27.7694 20.1314 28.8565 20.0228 29.8443 19.6912C30.8877 19.342 31.8287 18.7434 32.5856 18.2152C34.4326 16.9328 35.2655 16.6804 36.604 16.2755C37.1067 16.1229 37.6824 15.9497 38.3984 15.6915L44.9594 3.38431ZM111.741 48.6134C112.887 50.4973 114.365 52.9183 113.918 54.5469L113.854 54.7729L113.638 54.8492C112.057 55.392 83.4776 55.216 71.9222 55.1455C69.8472 55.1338 68.3597 55.125 67.4449 55.125C66.4338 55.125 65.3086 55.0839 64.163 55.0428C60.2118 54.902 55.9888 54.7494 53.0839 56.2929C52.6835 56.5042 52.1925 56.8123 51.646 57.1557C48.8521 58.9017 44.6379 61.5427 41.3297 58.7139C40.6107 58.0976 40.3185 57.4286 40.0584 56.8299C39.6872 55.9731 39.3921 55.2952 37.3317 55.4977C35.4818 55.6796 34.4005 56.4514 33.2519 57.276C32.8837 57.5401 32.5096 57.8101 32.0946 58.0712C31.2384 58.6141 30.0285 59.1746 28.7279 59.5091C27.6729 59.7791 26.5536 59.9053 25.5074 59.7556C22.7895 59.3712 22.3599 58.2854 21.8046 56.8857C21.6614 56.5218 21.5065 56.1315 21.2873 55.7324C18.134 55.0164 16.4302 56.1814 14.6212 57.4168C13.5018 58.1827 12.3475 58.9721 10.7927 59.424C5.28384 61.035 3.79629 57.7484 3.17673 56.378C3.08905 56.1843 3.02184 56.0406 3.00138 56.0171C2.64484 55.6268 2.11002 55.5182 1.57521 55.4126C1.12223 55.3216 0.672166 55.2277 0.242562 54.99L0.0730581 54.8961L0.0262985 54.7054C-0.394538 52.9095 4.25512 44.8191 6.11674 41.5765L6.64863 40.6492C7.38217 39.3463 10.0153 34.4428 13.2067 28.4946C19.5543 16.6716 28.1084 0.731538 28.6315 0.426352C29.5083 -0.0842466 39.357 0.0331325 46.4995 0.118232C48.9135 0.144643 51.0177 0.171053 52.3445 0.168118L85.6286 0.173987L85.7338 0.464501C86.3008 2.03445 87.5136 4.17955 88.4926 5.91382C88.7322 6.33639 88.9544 6.73254 89.1677 7.11403L110.937 47.2547C111.148 47.645 111.431 48.1116 111.741 48.6134Z" fill="#1B699A"/>
</svg>
